<mxfile host="app.diagrams.net" agent="Mozilla/5.0 (Windows NT 10.0; Win64; x64) AppleWebKit/537.36 (KHTML, like Gecko) Chrome/131.0.0.0 Safari/537.36 Edg/131.0.0.0" version="25.0.3">
  <diagram id="R2lEEEUBdFMjLlhIrx00" name="Page-1">
    <mxGraphModel dx="4347" dy="3770" grid="1" gridSize="10" guides="1" tooltips="1" connect="1" arrows="1" fold="1" page="1" pageScale="1" pageWidth="850" pageHeight="1100" math="0" shadow="0" extFonts="Permanent Marker^https://fonts.googleapis.com/css?family=Permanent+Marker">
      <root>
        <mxCell id="0" />
        <mxCell id="1" parent="0" />
        <mxCell id="f0wFIG43EovwoNzzDo---1" value="player" style="whiteSpace=wrap;html=1;align=center;" parent="1" vertex="1">
          <mxGeometry x="-720" y="160" width="100" height="40" as="geometry" />
        </mxCell>
        <mxCell id="f0wFIG43EovwoNzzDo---2" value="Competitions" style="whiteSpace=wrap;html=1;align=center;" parent="1" vertex="1">
          <mxGeometry x="320" y="-335" width="100" height="40" as="geometry" />
        </mxCell>
        <mxCell id="f0wFIG43EovwoNzzDo---3" value="Family" style="whiteSpace=wrap;html=1;align=center;" parent="1" vertex="1">
          <mxGeometry x="1020" y="680" width="100" height="40" as="geometry" />
        </mxCell>
        <mxCell id="f0wFIG43EovwoNzzDo---4" value="Members" style="whiteSpace=wrap;html=1;align=center;" parent="1" vertex="1">
          <mxGeometry x="1100" y="1150" width="100" height="40" as="geometry" />
        </mxCell>
        <mxCell id="f0wFIG43EovwoNzzDo---5" value="Sponsors" style="whiteSpace=wrap;html=1;align=center;" parent="1" vertex="1">
          <mxGeometry x="-70" y="650" width="100" height="40" as="geometry" />
        </mxCell>
        <mxCell id="f0wFIG43EovwoNzzDo---6" value="Sports" style="whiteSpace=wrap;html=1;align=center;" parent="1" vertex="1">
          <mxGeometry x="-130" y="-180" width="100" height="40" as="geometry" />
        </mxCell>
        <mxCell id="f0wFIG43EovwoNzzDo---9" value=" Employees" style="whiteSpace=wrap;html=1;align=center;" parent="1" vertex="1">
          <mxGeometry x="-140" y="1110" width="110" height="50" as="geometry" />
        </mxCell>
        <mxCell id="f0wFIG43EovwoNzzDo---10" value="Buildings" style="whiteSpace=wrap;html=1;align=center;" parent="1" vertex="1">
          <mxGeometry x="-810" y="1770" width="100" height="40" as="geometry" />
        </mxCell>
        <mxCell id="f0wFIG43EovwoNzzDo---11" value="Events" style="whiteSpace=wrap;html=1;align=center;" parent="1" vertex="1">
          <mxGeometry x="-85" y="1820" width="100" height="40" as="geometry" />
        </mxCell>
        <mxCell id="f0wFIG43EovwoNzzDo---41" style="edgeStyle=orthogonalEdgeStyle;rounded=0;orthogonalLoop=1;jettySize=auto;html=1;exitX=0;exitY=1;exitDx=0;exitDy=0;entryX=1;entryY=0;entryDx=0;entryDy=0;" parent="1" source="f0wFIG43EovwoNzzDo---13" target="f0wFIG43EovwoNzzDo---1" edge="1">
          <mxGeometry relative="1" as="geometry">
            <Array as="points">
              <mxPoint x="-555" y="-126" />
              <mxPoint x="-620" y="-126" />
            </Array>
          </mxGeometry>
        </mxCell>
        <mxCell id="f0wFIG43EovwoNzzDo---13" value=" P email" style="ellipse;whiteSpace=wrap;html=1;align=center;" parent="1" vertex="1">
          <mxGeometry x="-570" y="-190" width="100" height="40" as="geometry" />
        </mxCell>
        <mxCell id="f0wFIG43EovwoNzzDo---14" value="P phone" style="ellipse;whiteSpace=wrap;html=1;align=center;" parent="1" vertex="1">
          <mxGeometry x="-780" y="-160" width="100" height="40" as="geometry" />
        </mxCell>
        <mxCell id="f0wFIG43EovwoNzzDo---36" style="edgeStyle=orthogonalEdgeStyle;rounded=0;orthogonalLoop=1;jettySize=auto;html=1;exitX=1;exitY=0.5;exitDx=0;exitDy=0;entryX=0.25;entryY=0;entryDx=0;entryDy=0;" parent="1" source="f0wFIG43EovwoNzzDo---15" target="f0wFIG43EovwoNzzDo---1" edge="1">
          <mxGeometry relative="1" as="geometry" />
        </mxCell>
        <mxCell id="f0wFIG43EovwoNzzDo---15" value="P salary" style="ellipse;whiteSpace=wrap;html=1;align=center;" parent="1" vertex="1">
          <mxGeometry x="-1050" y="20" width="100" height="40" as="geometry" />
        </mxCell>
        <mxCell id="f0wFIG43EovwoNzzDo---33" style="edgeStyle=orthogonalEdgeStyle;rounded=0;orthogonalLoop=1;jettySize=auto;html=1;exitX=1;exitY=0;exitDx=0;exitDy=0;entryX=0.5;entryY=0;entryDx=0;entryDy=0;" parent="1" edge="1">
          <mxGeometry relative="1" as="geometry">
            <mxPoint x="-1014.7068513665843" y="175.79303188658645" as="sourcePoint" />
            <mxPoint x="-710" y="159.95999999999998" as="targetPoint" />
            <Array as="points">
              <mxPoint x="-879.71" y="175.98" />
              <mxPoint x="-879.71" y="129.98" />
              <mxPoint x="-709.71" y="129.98" />
            </Array>
          </mxGeometry>
        </mxCell>
        <mxCell id="f0wFIG43EovwoNzzDo---16" value="P marital status" style="ellipse;whiteSpace=wrap;html=1;align=center;" parent="1" vertex="1">
          <mxGeometry x="-1060" y="170" width="100" height="40" as="geometry" />
        </mxCell>
        <mxCell id="f0wFIG43EovwoNzzDo---29" style="edgeStyle=orthogonalEdgeStyle;rounded=0;orthogonalLoop=1;jettySize=auto;html=1;exitX=1;exitY=0.5;exitDx=0;exitDy=0;entryX=0.25;entryY=1;entryDx=0;entryDy=0;" parent="1" source="f0wFIG43EovwoNzzDo---17" target="f0wFIG43EovwoNzzDo---1" edge="1">
          <mxGeometry relative="1" as="geometry" />
        </mxCell>
        <mxCell id="f0wFIG43EovwoNzzDo---42" style="edgeStyle=orthogonalEdgeStyle;rounded=0;orthogonalLoop=1;jettySize=auto;html=1;exitX=0;exitY=0.5;exitDx=0;exitDy=0;entryX=0.5;entryY=0;entryDx=0;entryDy=0;" parent="1" source="f0wFIG43EovwoNzzDo---17" target="f0wFIG43EovwoNzzDo---24" edge="1">
          <mxGeometry relative="1" as="geometry" />
        </mxCell>
        <mxCell id="f0wFIG43EovwoNzzDo---43" style="edgeStyle=orthogonalEdgeStyle;rounded=0;orthogonalLoop=1;jettySize=auto;html=1;exitX=0.5;exitY=1;exitDx=0;exitDy=0;entryX=0.5;entryY=0;entryDx=0;entryDy=0;" parent="1" source="f0wFIG43EovwoNzzDo---17" target="f0wFIG43EovwoNzzDo---23" edge="1">
          <mxGeometry relative="1" as="geometry" />
        </mxCell>
        <mxCell id="f0wFIG43EovwoNzzDo---17" value="P address" style="ellipse;whiteSpace=wrap;html=1;align=center;" parent="1" vertex="1">
          <mxGeometry x="-1030" y="370" width="100" height="40" as="geometry" />
        </mxCell>
        <mxCell id="f0wFIG43EovwoNzzDo---32" style="edgeStyle=orthogonalEdgeStyle;rounded=0;orthogonalLoop=1;jettySize=auto;html=1;exitX=1;exitY=0.5;exitDx=0;exitDy=0;entryX=0;entryY=0.25;entryDx=0;entryDy=0;" parent="1" source="f0wFIG43EovwoNzzDo---18" target="f0wFIG43EovwoNzzDo---1" edge="1">
          <mxGeometry relative="1" as="geometry">
            <Array as="points">
              <mxPoint x="-830" y="250" />
              <mxPoint x="-830" y="170" />
            </Array>
          </mxGeometry>
        </mxCell>
        <mxCell id="f0wFIG43EovwoNzzDo---18" value="P ranking" style="ellipse;whiteSpace=wrap;html=1;align=center;" parent="1" vertex="1">
          <mxGeometry x="-1060" y="230" width="100" height="40" as="geometry" />
        </mxCell>
        <mxCell id="f0wFIG43EovwoNzzDo---19" value="P gander" style="ellipse;whiteSpace=wrap;html=1;align=center;" parent="1" vertex="1">
          <mxGeometry x="-1060" y="90" width="100" height="40" as="geometry" />
        </mxCell>
        <mxCell id="f0wFIG43EovwoNzzDo---20" value="P ssn" style="ellipse;whiteSpace=wrap;html=1;align=center;" parent="1" vertex="1">
          <mxGeometry x="-1050" y="-50" width="100" height="40" as="geometry" />
        </mxCell>
        <mxCell id="f0wFIG43EovwoNzzDo---38" style="edgeStyle=orthogonalEdgeStyle;rounded=0;orthogonalLoop=1;jettySize=auto;html=1;exitX=1;exitY=0.5;exitDx=0;exitDy=0;entryX=0.5;entryY=0;entryDx=0;entryDy=0;" parent="1" source="f0wFIG43EovwoNzzDo---21" target="f0wFIG43EovwoNzzDo---1" edge="1">
          <mxGeometry relative="1" as="geometry">
            <mxPoint x="-640" y="100" as="targetPoint" />
          </mxGeometry>
        </mxCell>
        <mxCell id="f0wFIG43EovwoNzzDo---21" value="P name" style="ellipse;whiteSpace=wrap;html=1;align=center;" parent="1" vertex="1">
          <mxGeometry x="-1030" y="-120" width="100" height="40" as="geometry" />
        </mxCell>
        <mxCell id="f0wFIG43EovwoNzzDo---40" style="edgeStyle=orthogonalEdgeStyle;rounded=0;orthogonalLoop=1;jettySize=auto;html=1;exitX=0.5;exitY=1;exitDx=0;exitDy=0;entryX=0.75;entryY=0;entryDx=0;entryDy=0;" parent="1" source="f0wFIG43EovwoNzzDo---22" target="f0wFIG43EovwoNzzDo---1" edge="1">
          <mxGeometry relative="1" as="geometry">
            <Array as="points">
              <mxPoint x="-640" y="-170" />
              <mxPoint x="-640" y="-5" />
              <mxPoint x="-645" y="-5" />
            </Array>
          </mxGeometry>
        </mxCell>
        <mxCell id="f0wFIG43EovwoNzzDo---22" value=" P id" style="ellipse;whiteSpace=wrap;html=1;align=center;fontStyle=4;" parent="1" vertex="1">
          <mxGeometry x="-680" y="-220" width="100" height="40" as="geometry" />
        </mxCell>
        <mxCell id="f0wFIG43EovwoNzzDo---23" value="street" style="ellipse;whiteSpace=wrap;html=1;align=center;" parent="1" vertex="1">
          <mxGeometry x="-970" y="510" width="100" height="40" as="geometry" />
        </mxCell>
        <mxCell id="f0wFIG43EovwoNzzDo---24" value="City" style="ellipse;whiteSpace=wrap;html=1;align=center;" parent="1" vertex="1">
          <mxGeometry x="-1090" y="490" width="100" height="40" as="geometry" />
        </mxCell>
        <mxCell id="f0wFIG43EovwoNzzDo---30" style="edgeStyle=orthogonalEdgeStyle;rounded=0;orthogonalLoop=1;jettySize=auto;html=1;exitX=1;exitY=0.5;exitDx=0;exitDy=0;entryX=0;entryY=0.75;entryDx=0;entryDy=0;" parent="1" source="f0wFIG43EovwoNzzDo---27" target="f0wFIG43EovwoNzzDo---1" edge="1">
          <mxGeometry relative="1" as="geometry">
            <Array as="points">
              <mxPoint x="-790" y="320" />
              <mxPoint x="-790" y="190" />
            </Array>
          </mxGeometry>
        </mxCell>
        <mxCell id="f0wFIG43EovwoNzzDo---27" value=" P age" style="ellipse;whiteSpace=wrap;html=1;align=center;" parent="1" vertex="1">
          <mxGeometry x="-1050" y="300" width="100" height="40" as="geometry" />
        </mxCell>
        <mxCell id="f0wFIG43EovwoNzzDo---34" style="edgeStyle=orthogonalEdgeStyle;rounded=0;orthogonalLoop=1;jettySize=auto;html=1;entryX=0.604;entryY=0.061;entryDx=0;entryDy=0;entryPerimeter=0;" parent="1" edge="1">
          <mxGeometry relative="1" as="geometry">
            <mxPoint x="-960" y="108" as="sourcePoint" />
            <mxPoint x="-699.6000000000001" y="160.00000000000006" as="targetPoint" />
            <Array as="points">
              <mxPoint x="-700" y="108" />
              <mxPoint x="-700" y="148" />
              <mxPoint x="-700" y="148" />
            </Array>
          </mxGeometry>
        </mxCell>
        <mxCell id="f0wFIG43EovwoNzzDo---37" style="edgeStyle=orthogonalEdgeStyle;rounded=0;orthogonalLoop=1;jettySize=auto;html=1;exitX=1;exitY=0.5;exitDx=0;exitDy=0;entryX=0.36;entryY=0.076;entryDx=0;entryDy=0;entryPerimeter=0;" parent="1" source="f0wFIG43EovwoNzzDo---20" target="f0wFIG43EovwoNzzDo---1" edge="1">
          <mxGeometry relative="1" as="geometry" />
        </mxCell>
        <mxCell id="f0wFIG43EovwoNzzDo---39" style="edgeStyle=orthogonalEdgeStyle;rounded=0;orthogonalLoop=1;jettySize=auto;html=1;entryX=0.636;entryY=0.027;entryDx=0;entryDy=0;entryPerimeter=0;" parent="1" source="f0wFIG43EovwoNzzDo---14" target="f0wFIG43EovwoNzzDo---1" edge="1">
          <mxGeometry relative="1" as="geometry">
            <Array as="points">
              <mxPoint x="-660" y="-140" />
              <mxPoint x="-660" y="80" />
              <mxPoint x="-656" y="80" />
            </Array>
          </mxGeometry>
        </mxCell>
        <mxCell id="f0wFIG43EovwoNzzDo---55" style="edgeStyle=orthogonalEdgeStyle;rounded=0;orthogonalLoop=1;jettySize=auto;html=1;exitX=0.77;exitY=0.933;exitDx=0;exitDy=0;entryX=0.75;entryY=0;entryDx=0;entryDy=0;exitPerimeter=0;" parent="1" source="f0wFIG43EovwoNzzDo---51" target="f0wFIG43EovwoNzzDo---6" edge="1">
          <mxGeometry relative="1" as="geometry">
            <mxPoint x="10" y="-250.00000000000023" as="sourcePoint" />
            <mxPoint x="-85" y="-99.99999999999977" as="targetPoint" />
          </mxGeometry>
        </mxCell>
        <mxCell id="f0wFIG43EovwoNzzDo---51" value="S type" style="ellipse;whiteSpace=wrap;html=1;align=center;" parent="1" vertex="1">
          <mxGeometry x="-80" y="-360" width="100" height="40" as="geometry" />
        </mxCell>
        <mxCell id="f0wFIG43EovwoNzzDo---54" style="edgeStyle=orthogonalEdgeStyle;rounded=0;orthogonalLoop=1;jettySize=auto;html=1;exitX=0.5;exitY=1;exitDx=0;exitDy=0;entryX=0.145;entryY=-0.046;entryDx=0;entryDy=0;entryPerimeter=0;" parent="1" source="f0wFIG43EovwoNzzDo---52" target="f0wFIG43EovwoNzzDo---6" edge="1">
          <mxGeometry relative="1" as="geometry" />
        </mxCell>
        <mxCell id="f0wFIG43EovwoNzzDo---52" value="S name" style="ellipse;whiteSpace=wrap;html=1;align=center;fontStyle=4;" parent="1" vertex="1">
          <mxGeometry x="-190" y="-360" width="100" height="40" as="geometry" />
        </mxCell>
        <mxCell id="f0wFIG43EovwoNzzDo---56" value="Technical team" style="whiteSpace=wrap;html=1;align=center;" parent="1" vertex="1">
          <mxGeometry x="380" y="140" width="100" height="40" as="geometry" />
        </mxCell>
        <mxCell id="f0wFIG43EovwoNzzDo---263" style="edgeStyle=orthogonalEdgeStyle;rounded=0;orthogonalLoop=1;jettySize=auto;html=1;exitX=0;exitY=0.5;exitDx=0;exitDy=0;entryX=1;entryY=0.75;entryDx=0;entryDy=0;" parent="1" source="f0wFIG43EovwoNzzDo---58" target="f0wFIG43EovwoNzzDo---56" edge="1">
          <mxGeometry relative="1" as="geometry">
            <Array as="points">
              <mxPoint x="580" y="290" />
              <mxPoint x="520" y="290" />
              <mxPoint x="520" y="170" />
            </Array>
          </mxGeometry>
        </mxCell>
        <mxCell id="f0wFIG43EovwoNzzDo---58" value="Te age" style="ellipse;whiteSpace=wrap;html=1;align=center;" parent="1" vertex="1">
          <mxGeometry x="580" y="340" width="100" height="40" as="geometry" />
        </mxCell>
        <mxCell id="f0wFIG43EovwoNzzDo---267" style="edgeStyle=orthogonalEdgeStyle;rounded=0;orthogonalLoop=1;jettySize=auto;html=1;exitX=0;exitY=0.5;exitDx=0;exitDy=0;entryX=1;entryY=0;entryDx=0;entryDy=0;" parent="1" source="f0wFIG43EovwoNzzDo---60" target="f0wFIG43EovwoNzzDo---56" edge="1">
          <mxGeometry relative="1" as="geometry">
            <Array as="points">
              <mxPoint x="700" y="140" />
            </Array>
          </mxGeometry>
        </mxCell>
        <mxCell id="f0wFIG43EovwoNzzDo---60" value="Te email" style="ellipse;whiteSpace=wrap;html=1;align=center;" parent="1" vertex="1">
          <mxGeometry x="700" y="60" width="100" height="40" as="geometry" />
        </mxCell>
        <mxCell id="f0wFIG43EovwoNzzDo---269" style="edgeStyle=orthogonalEdgeStyle;rounded=0;orthogonalLoop=1;jettySize=auto;html=1;exitX=0.5;exitY=1;exitDx=0;exitDy=0;entryX=0.75;entryY=0;entryDx=0;entryDy=0;" parent="1" source="f0wFIG43EovwoNzzDo---62" target="f0wFIG43EovwoNzzDo---56" edge="1">
          <mxGeometry relative="1" as="geometry">
            <Array as="points">
              <mxPoint x="660" y="-40" />
              <mxPoint x="660" y="50" />
              <mxPoint x="455" y="50" />
            </Array>
          </mxGeometry>
        </mxCell>
        <mxCell id="f0wFIG43EovwoNzzDo---62" value="Te salary" style="ellipse;whiteSpace=wrap;html=1;align=center;" parent="1" vertex="1">
          <mxGeometry x="710" y="-80" width="100" height="40" as="geometry" />
        </mxCell>
        <mxCell id="f0wFIG43EovwoNzzDo---273" style="edgeStyle=orthogonalEdgeStyle;rounded=0;orthogonalLoop=1;jettySize=auto;html=1;exitX=0.5;exitY=0;exitDx=0;exitDy=0;entryX=0.5;entryY=1;entryDx=0;entryDy=0;" parent="1" source="f0wFIG43EovwoNzzDo---66" target="f0wFIG43EovwoNzzDo---56" edge="1">
          <mxGeometry relative="1" as="geometry">
            <Array as="points">
              <mxPoint x="430" y="430" />
            </Array>
          </mxGeometry>
        </mxCell>
        <mxCell id="f0wFIG43EovwoNzzDo---66" value="Te address" style="ellipse;whiteSpace=wrap;html=1;align=center;" parent="1" vertex="1">
          <mxGeometry x="325" y="430" width="100" height="40" as="geometry" />
        </mxCell>
        <mxCell id="f0wFIG43EovwoNzzDo---271" style="edgeStyle=orthogonalEdgeStyle;rounded=0;orthogonalLoop=1;jettySize=auto;html=1;exitX=0.5;exitY=1;exitDx=0;exitDy=0;entryX=0.5;entryY=0;entryDx=0;entryDy=0;" parent="1" source="f0wFIG43EovwoNzzDo---68" target="f0wFIG43EovwoNzzDo---56" edge="1">
          <mxGeometry relative="1" as="geometry">
            <Array as="points">
              <mxPoint x="630" y="-60" />
              <mxPoint x="630" y="40" />
              <mxPoint x="430" y="40" />
            </Array>
          </mxGeometry>
        </mxCell>
        <mxCell id="f0wFIG43EovwoNzzDo---68" value="Te eligible" style="ellipse;whiteSpace=wrap;html=1;align=center;" parent="1" vertex="1">
          <mxGeometry x="610" y="-100" width="100" height="40" as="geometry" />
        </mxCell>
        <mxCell id="f0wFIG43EovwoNzzDo---268" style="edgeStyle=orthogonalEdgeStyle;rounded=0;orthogonalLoop=1;jettySize=auto;html=1;exitX=0;exitY=0.5;exitDx=0;exitDy=0;entryX=1;entryY=0;entryDx=0;entryDy=0;" parent="1" source="f0wFIG43EovwoNzzDo---69" target="f0wFIG43EovwoNzzDo---56" edge="1">
          <mxGeometry relative="1" as="geometry">
            <Array as="points">
              <mxPoint x="720" y="50" />
              <mxPoint x="670" y="50" />
              <mxPoint x="670" y="100" />
              <mxPoint x="480" y="100" />
            </Array>
          </mxGeometry>
        </mxCell>
        <mxCell id="f0wFIG43EovwoNzzDo---69" value="Te phone" style="ellipse;whiteSpace=wrap;html=1;align=center;" parent="1" vertex="1">
          <mxGeometry x="720" width="100" height="40" as="geometry" />
        </mxCell>
        <mxCell id="f0wFIG43EovwoNzzDo---266" style="edgeStyle=orthogonalEdgeStyle;rounded=0;orthogonalLoop=1;jettySize=auto;html=1;exitX=0.5;exitY=0;exitDx=0;exitDy=0;entryX=1;entryY=0.25;entryDx=0;entryDy=0;" parent="1" source="f0wFIG43EovwoNzzDo---70" target="f0wFIG43EovwoNzzDo---56" edge="1">
          <mxGeometry relative="1" as="geometry" />
        </mxCell>
        <mxCell id="f0wFIG43EovwoNzzDo---70" value="Te ssn" style="ellipse;whiteSpace=wrap;html=1;align=center;" parent="1" vertex="1">
          <mxGeometry x="660" y="200" width="100" height="40" as="geometry" />
        </mxCell>
        <mxCell id="f0wFIG43EovwoNzzDo---265" style="edgeStyle=orthogonalEdgeStyle;rounded=0;orthogonalLoop=1;jettySize=auto;html=1;exitX=0.5;exitY=0;exitDx=0;exitDy=0;entryX=1;entryY=0.5;entryDx=0;entryDy=0;" parent="1" source="f0wFIG43EovwoNzzDo---72" target="f0wFIG43EovwoNzzDo---56" edge="1">
          <mxGeometry relative="1" as="geometry">
            <Array as="points">
              <mxPoint x="630" y="280" />
              <mxPoint x="630" y="160" />
            </Array>
          </mxGeometry>
        </mxCell>
        <mxCell id="f0wFIG43EovwoNzzDo---72" value="Te name" style="ellipse;whiteSpace=wrap;html=1;align=center;" parent="1" vertex="1">
          <mxGeometry x="630" y="280" width="100" height="40" as="geometry" />
        </mxCell>
        <mxCell id="f0wFIG43EovwoNzzDo---264" style="edgeStyle=orthogonalEdgeStyle;rounded=0;orthogonalLoop=1;jettySize=auto;html=1;exitX=0.5;exitY=0;exitDx=0;exitDy=0;entryX=0.75;entryY=1;entryDx=0;entryDy=0;" parent="1" source="f0wFIG43EovwoNzzDo---74" target="f0wFIG43EovwoNzzDo---56" edge="1">
          <mxGeometry relative="1" as="geometry" />
        </mxCell>
        <mxCell id="f0wFIG43EovwoNzzDo---74" value=" Te id" style="ellipse;whiteSpace=wrap;html=1;align=center;fontStyle=4;" parent="1" vertex="1">
          <mxGeometry x="445" y="420" width="100" height="40" as="geometry" />
        </mxCell>
        <mxCell id="f0wFIG43EovwoNzzDo---272" style="edgeStyle=orthogonalEdgeStyle;rounded=0;orthogonalLoop=1;jettySize=auto;html=1;exitX=0.5;exitY=1;exitDx=0;exitDy=0;entryX=0.25;entryY=0;entryDx=0;entryDy=0;" parent="1" source="f0wFIG43EovwoNzzDo---77" target="f0wFIG43EovwoNzzDo---56" edge="1">
          <mxGeometry relative="1" as="geometry">
            <Array as="points">
              <mxPoint x="540" y="20" />
              <mxPoint x="405" y="20" />
            </Array>
          </mxGeometry>
        </mxCell>
        <mxCell id="f0wFIG43EovwoNzzDo---77" value="Te experience" style="ellipse;whiteSpace=wrap;html=1;align=center;" parent="1" vertex="1">
          <mxGeometry x="490" y="-110" width="100" height="40" as="geometry" />
        </mxCell>
        <mxCell id="f0wFIG43EovwoNzzDo---97" style="edgeStyle=orthogonalEdgeStyle;rounded=0;orthogonalLoop=1;jettySize=auto;html=1;exitX=0;exitY=0.5;exitDx=0;exitDy=0;entryX=1;entryY=0.25;entryDx=0;entryDy=0;" parent="1" source="f0wFIG43EovwoNzzDo---87" target="f0wFIG43EovwoNzzDo---2" edge="1">
          <mxGeometry relative="1" as="geometry" />
        </mxCell>
        <mxCell id="f0wFIG43EovwoNzzDo---87" value="C id" style="ellipse;whiteSpace=wrap;html=1;align=center;fontStyle=4;" parent="1" vertex="1">
          <mxGeometry x="465" y="-510" width="100" height="40" as="geometry" />
        </mxCell>
        <mxCell id="f0wFIG43EovwoNzzDo---290" style="edgeStyle=orthogonalEdgeStyle;rounded=0;orthogonalLoop=1;jettySize=auto;html=1;exitX=1;exitY=1;exitDx=0;exitDy=0;entryX=0.5;entryY=0;entryDx=0;entryDy=0;" parent="1" source="f0wFIG43EovwoNzzDo---88" target="f0wFIG43EovwoNzzDo---2" edge="1">
          <mxGeometry relative="1" as="geometry" />
        </mxCell>
        <mxCell id="f0wFIG43EovwoNzzDo---88" value="C data" style="ellipse;whiteSpace=wrap;html=1;align=center;" parent="1" vertex="1">
          <mxGeometry x="210" y="-480" width="100" height="40" as="geometry" />
        </mxCell>
        <mxCell id="f0wFIG43EovwoNzzDo---96" style="edgeStyle=orthogonalEdgeStyle;rounded=0;orthogonalLoop=1;jettySize=auto;html=1;exitX=0;exitY=0;exitDx=0;exitDy=0;entryX=1;entryY=0.5;entryDx=0;entryDy=0;" parent="1" source="f0wFIG43EovwoNzzDo---89" target="f0wFIG43EovwoNzzDo---2" edge="1">
          <mxGeometry relative="1" as="geometry" />
        </mxCell>
        <mxCell id="f0wFIG43EovwoNzzDo---89" value=" C place" style="ellipse;whiteSpace=wrap;html=1;align=center;" parent="1" vertex="1">
          <mxGeometry x="510" y="-375" width="100" height="40" as="geometry" />
        </mxCell>
        <mxCell id="f0wFIG43EovwoNzzDo---90" value="End" style="ellipse;whiteSpace=wrap;html=1;align=center;" parent="1" vertex="1">
          <mxGeometry x="300" y="-590" width="100" height="40" as="geometry" />
        </mxCell>
        <mxCell id="f0wFIG43EovwoNzzDo---289" style="edgeStyle=orthogonalEdgeStyle;rounded=0;orthogonalLoop=1;jettySize=auto;html=1;exitX=1;exitY=1;exitDx=0;exitDy=0;entryX=0.5;entryY=0;entryDx=0;entryDy=0;" parent="1" source="f0wFIG43EovwoNzzDo---91" target="f0wFIG43EovwoNzzDo---88" edge="1">
          <mxGeometry relative="1" as="geometry" />
        </mxCell>
        <mxCell id="f0wFIG43EovwoNzzDo---91" value="Start" style="ellipse;whiteSpace=wrap;html=1;align=center;" parent="1" vertex="1">
          <mxGeometry x="110" y="-570" width="100" height="40" as="geometry" />
        </mxCell>
        <mxCell id="f0wFIG43EovwoNzzDo---295" style="edgeStyle=orthogonalEdgeStyle;rounded=0;orthogonalLoop=1;jettySize=auto;html=1;exitX=0;exitY=0.5;exitDx=0;exitDy=0;entryX=1;entryY=0.75;entryDx=0;entryDy=0;" parent="1" source="f0wFIG43EovwoNzzDo---100" target="f0wFIG43EovwoNzzDo---5" edge="1">
          <mxGeometry relative="1" as="geometry" />
        </mxCell>
        <mxCell id="f0wFIG43EovwoNzzDo---100" value="Sp salary." style="ellipse;whiteSpace=wrap;html=1;align=center;" parent="1" vertex="1">
          <mxGeometry x="190" y="680" width="100" height="40" as="geometry" />
        </mxCell>
        <mxCell id="f0wFIG43EovwoNzzDo---294" style="edgeStyle=orthogonalEdgeStyle;rounded=0;orthogonalLoop=1;jettySize=auto;html=1;exitX=0;exitY=0.5;exitDx=0;exitDy=0;entryX=1;entryY=0.25;entryDx=0;entryDy=0;" parent="1" source="f0wFIG43EovwoNzzDo---101" target="f0wFIG43EovwoNzzDo---5" edge="1">
          <mxGeometry relative="1" as="geometry" />
        </mxCell>
        <mxCell id="f0wFIG43EovwoNzzDo---101" value="Sp ID" style="ellipse;whiteSpace=wrap;html=1;align=center;fontStyle=4;" parent="1" vertex="1">
          <mxGeometry x="180" y="630" width="100" height="40" as="geometry" />
        </mxCell>
        <mxCell id="f0wFIG43EovwoNzzDo---298" style="edgeStyle=orthogonalEdgeStyle;rounded=0;orthogonalLoop=1;jettySize=auto;html=1;exitX=1;exitY=0.5;exitDx=0;exitDy=0;entryX=0;entryY=0.25;entryDx=0;entryDy=0;" parent="1" source="f0wFIG43EovwoNzzDo---102" target="f0wFIG43EovwoNzzDo---5" edge="1">
          <mxGeometry relative="1" as="geometry" />
        </mxCell>
        <mxCell id="f0wFIG43EovwoNzzDo---102" value="Sp time " style="ellipse;whiteSpace=wrap;html=1;align=center;" parent="1" vertex="1">
          <mxGeometry x="-240" y="620" width="100" height="40" as="geometry" />
        </mxCell>
        <mxCell id="f0wFIG43EovwoNzzDo---297" style="edgeStyle=orthogonalEdgeStyle;rounded=0;orthogonalLoop=1;jettySize=auto;html=1;exitX=1;exitY=0.5;exitDx=0;exitDy=0;entryX=0;entryY=0.75;entryDx=0;entryDy=0;" parent="1" source="f0wFIG43EovwoNzzDo---103" target="f0wFIG43EovwoNzzDo---5" edge="1">
          <mxGeometry relative="1" as="geometry" />
        </mxCell>
        <mxCell id="f0wFIG43EovwoNzzDo---103" value=" Sp website" style="ellipse;whiteSpace=wrap;html=1;align=center;" parent="1" vertex="1">
          <mxGeometry x="-220" y="730" width="100" height="40" as="geometry" />
        </mxCell>
        <mxCell id="f0wFIG43EovwoNzzDo---300" style="edgeStyle=orthogonalEdgeStyle;rounded=0;orthogonalLoop=1;jettySize=auto;html=1;exitX=1;exitY=0.5;exitDx=0;exitDy=0;entryX=0;entryY=0;entryDx=0;entryDy=0;" parent="1" source="f0wFIG43EovwoNzzDo---105" target="f0wFIG43EovwoNzzDo---102" edge="1">
          <mxGeometry relative="1" as="geometry" />
        </mxCell>
        <mxCell id="f0wFIG43EovwoNzzDo---105" value="Start" style="ellipse;whiteSpace=wrap;html=1;align=center;" parent="1" vertex="1">
          <mxGeometry x="-380" y="610" width="100" height="40" as="geometry" />
        </mxCell>
        <mxCell id="f0wFIG43EovwoNzzDo---299" style="edgeStyle=orthogonalEdgeStyle;rounded=0;orthogonalLoop=1;jettySize=auto;html=1;exitX=1;exitY=0.5;exitDx=0;exitDy=0;entryX=0;entryY=1;entryDx=0;entryDy=0;" parent="1" source="f0wFIG43EovwoNzzDo---106" target="f0wFIG43EovwoNzzDo---102" edge="1">
          <mxGeometry relative="1" as="geometry">
            <Array as="points">
              <mxPoint x="-280" y="670" />
              <mxPoint x="-225" y="670" />
            </Array>
          </mxGeometry>
        </mxCell>
        <mxCell id="f0wFIG43EovwoNzzDo---106" value="End" style="ellipse;whiteSpace=wrap;html=1;align=center;" parent="1" vertex="1">
          <mxGeometry x="-380" y="670" width="100" height="40" as="geometry" />
        </mxCell>
        <mxCell id="f0wFIG43EovwoNzzDo---112" value="F id" style="ellipse;whiteSpace=wrap;html=1;align=center;fontStyle=4;" parent="1" vertex="1">
          <mxGeometry x="950" y="620" width="100" height="40" as="geometry" />
        </mxCell>
        <mxCell id="f0wFIG43EovwoNzzDo---113" value="M age" style="ellipse;whiteSpace=wrap;html=1;align=center;" parent="1" vertex="1">
          <mxGeometry x="1300" y="1290" width="100" height="40" as="geometry" />
        </mxCell>
        <mxCell id="f0wFIG43EovwoNzzDo---149" style="edgeStyle=orthogonalEdgeStyle;rounded=0;orthogonalLoop=1;jettySize=auto;html=1;exitX=0;exitY=0.5;exitDx=0;exitDy=0;entryX=1;entryY=0.5;entryDx=0;entryDy=0;" parent="1" source="f0wFIG43EovwoNzzDo---114" target="f0wFIG43EovwoNzzDo---4" edge="1">
          <mxGeometry relative="1" as="geometry" />
        </mxCell>
        <mxCell id="f0wFIG43EovwoNzzDo---114" value="M ssn" style="ellipse;whiteSpace=wrap;html=1;align=center;" parent="1" vertex="1">
          <mxGeometry x="1360" y="1210" width="100" height="40" as="geometry" />
        </mxCell>
        <mxCell id="rXcHyY6dW85WbXA3lwDJ-53" style="edgeStyle=orthogonalEdgeStyle;rounded=0;orthogonalLoop=1;jettySize=auto;html=1;exitX=0;exitY=0.5;exitDx=0;exitDy=0;entryX=1;entryY=0.25;entryDx=0;entryDy=0;" parent="1" source="f0wFIG43EovwoNzzDo---116" target="f0wFIG43EovwoNzzDo---4" edge="1">
          <mxGeometry relative="1" as="geometry" />
        </mxCell>
        <mxCell id="f0wFIG43EovwoNzzDo---116" value="M name" style="ellipse;whiteSpace=wrap;html=1;align=center;" parent="1" vertex="1">
          <mxGeometry x="1370" y="1130" width="100" height="40" as="geometry" />
        </mxCell>
        <mxCell id="f0wFIG43EovwoNzzDo---117" value=" F num_of_person" style="ellipse;whiteSpace=wrap;html=1;align=center;" parent="1" vertex="1">
          <mxGeometry x="1130" y="595" width="100" height="40" as="geometry" />
        </mxCell>
        <mxCell id="f0wFIG43EovwoNzzDo---141" style="edgeStyle=orthogonalEdgeStyle;rounded=0;orthogonalLoop=1;jettySize=auto;html=1;exitX=0.5;exitY=0;exitDx=0;exitDy=0;entryX=0.75;entryY=1;entryDx=0;entryDy=0;" parent="1" source="f0wFIG43EovwoNzzDo---119" target="f0wFIG43EovwoNzzDo---4" edge="1">
          <mxGeometry relative="1" as="geometry">
            <Array as="points">
              <mxPoint x="1280" y="1390" />
              <mxPoint x="1175" y="1390" />
            </Array>
          </mxGeometry>
        </mxCell>
        <mxCell id="f0wFIG43EovwoNzzDo---119" value="M address" style="ellipse;whiteSpace=wrap;html=1;align=center;" parent="1" vertex="1">
          <mxGeometry x="1230" y="1430" width="100" height="40" as="geometry" />
        </mxCell>
        <mxCell id="f0wFIG43EovwoNzzDo---120" style="edgeStyle=orthogonalEdgeStyle;rounded=0;orthogonalLoop=1;jettySize=auto;html=1;exitX=0.5;exitY=1;exitDx=0;exitDy=0;entryX=0.25;entryY=0;entryDx=0;entryDy=0;" parent="1" source="f0wFIG43EovwoNzzDo---112" target="f0wFIG43EovwoNzzDo---3" edge="1">
          <mxGeometry relative="1" as="geometry" />
        </mxCell>
        <mxCell id="f0wFIG43EovwoNzzDo---121" style="edgeStyle=orthogonalEdgeStyle;rounded=0;orthogonalLoop=1;jettySize=auto;html=1;exitX=0;exitY=1;exitDx=0;exitDy=0;entryX=0.862;entryY=0.1;entryDx=0;entryDy=0;entryPerimeter=0;" parent="1" source="f0wFIG43EovwoNzzDo---117" target="f0wFIG43EovwoNzzDo---3" edge="1">
          <mxGeometry relative="1" as="geometry" />
        </mxCell>
        <mxCell id="f0wFIG43EovwoNzzDo---147" style="edgeStyle=orthogonalEdgeStyle;rounded=0;orthogonalLoop=1;jettySize=auto;html=1;exitX=0;exitY=0.5;exitDx=0;exitDy=0;entryX=0.75;entryY=0;entryDx=0;entryDy=0;" parent="1" source="f0wFIG43EovwoNzzDo---123" target="f0wFIG43EovwoNzzDo---4" edge="1">
          <mxGeometry relative="1" as="geometry">
            <mxPoint x="1100" y="1130" as="targetPoint" />
          </mxGeometry>
        </mxCell>
        <mxCell id="f0wFIG43EovwoNzzDo---123" value="M id" style="ellipse;whiteSpace=wrap;html=1;align=center;fontStyle=4;" parent="1" vertex="1">
          <mxGeometry x="1220" y="1040" width="100" height="40" as="geometry" />
        </mxCell>
        <mxCell id="f0wFIG43EovwoNzzDo---142" style="edgeStyle=orthogonalEdgeStyle;rounded=0;orthogonalLoop=1;jettySize=auto;html=1;exitX=1;exitY=0;exitDx=0;exitDy=0;entryX=0.097;entryY=1.058;entryDx=0;entryDy=0;entryPerimeter=0;" parent="1" source="f0wFIG43EovwoNzzDo---124" target="f0wFIG43EovwoNzzDo---4" edge="1">
          <mxGeometry relative="1" as="geometry">
            <mxPoint x="1120" y="1230" as="targetPoint" />
            <Array as="points">
              <mxPoint x="1025" y="1470" />
              <mxPoint x="1110" y="1470" />
            </Array>
          </mxGeometry>
        </mxCell>
        <mxCell id="f0wFIG43EovwoNzzDo---124" value="M email" style="ellipse;whiteSpace=wrap;html=1;align=center;" parent="1" vertex="1">
          <mxGeometry x="940" y="1500" width="100" height="40" as="geometry" />
        </mxCell>
        <mxCell id="f0wFIG43EovwoNzzDo---143" style="edgeStyle=orthogonalEdgeStyle;rounded=0;orthogonalLoop=1;jettySize=auto;html=1;exitX=1;exitY=0;exitDx=0;exitDy=0;entryX=0;entryY=1;entryDx=0;entryDy=0;" parent="1" source="f0wFIG43EovwoNzzDo---125" target="f0wFIG43EovwoNzzDo---4" edge="1">
          <mxGeometry relative="1" as="geometry">
            <Array as="points">
              <mxPoint x="1070" y="1356" />
              <mxPoint x="1070" y="1190" />
            </Array>
          </mxGeometry>
        </mxCell>
        <mxCell id="f0wFIG43EovwoNzzDo---125" value="M phone" style="ellipse;whiteSpace=wrap;html=1;align=center;" parent="1" vertex="1">
          <mxGeometry x="880" y="1350" width="100" height="40" as="geometry" />
        </mxCell>
        <mxCell id="f0wFIG43EovwoNzzDo---144" style="edgeStyle=orthogonalEdgeStyle;rounded=0;orthogonalLoop=1;jettySize=auto;html=1;exitX=1;exitY=0;exitDx=0;exitDy=0;entryX=0;entryY=0.75;entryDx=0;entryDy=0;" parent="1" source="f0wFIG43EovwoNzzDo---126" target="f0wFIG43EovwoNzzDo---4" edge="1">
          <mxGeometry relative="1" as="geometry" />
        </mxCell>
        <mxCell id="f0wFIG43EovwoNzzDo---126" value="M marital status" style="ellipse;whiteSpace=wrap;html=1;align=center;" parent="1" vertex="1">
          <mxGeometry x="800" y="1250" width="100" height="40" as="geometry" />
        </mxCell>
        <mxCell id="f0wFIG43EovwoNzzDo---145" style="edgeStyle=orthogonalEdgeStyle;rounded=0;orthogonalLoop=1;jettySize=auto;html=1;exitX=1;exitY=0.5;exitDx=0;exitDy=0;" parent="1" source="f0wFIG43EovwoNzzDo---129" target="f0wFIG43EovwoNzzDo---4" edge="1">
          <mxGeometry relative="1" as="geometry">
            <Array as="points">
              <mxPoint x="950" y="1170" />
            </Array>
          </mxGeometry>
        </mxCell>
        <mxCell id="f0wFIG43EovwoNzzDo---129" value="M price_of_subscribe" style="ellipse;whiteSpace=wrap;html=1;align=center;" parent="1" vertex="1">
          <mxGeometry x="840" y="1150" width="110" height="50" as="geometry" />
        </mxCell>
        <mxCell id="f0wFIG43EovwoNzzDo---146" style="edgeStyle=orthogonalEdgeStyle;rounded=0;orthogonalLoop=1;jettySize=auto;html=1;exitX=1;exitY=1;exitDx=0;exitDy=0;entryX=0.582;entryY=-0.073;entryDx=0;entryDy=0;entryPerimeter=0;" parent="1" source="f0wFIG43EovwoNzzDo---130" target="f0wFIG43EovwoNzzDo---4" edge="1">
          <mxGeometry relative="1" as="geometry" />
        </mxCell>
        <mxCell id="f0wFIG43EovwoNzzDo---130" value=" M time_of_subscribe" style="ellipse;whiteSpace=wrap;html=1;align=center;" parent="1" vertex="1">
          <mxGeometry x="1205" y="980" width="110" height="50" as="geometry" />
        </mxCell>
        <mxCell id="f0wFIG43EovwoNzzDo---136" style="edgeStyle=orthogonalEdgeStyle;rounded=0;orthogonalLoop=1;jettySize=auto;html=1;exitX=0.5;exitY=1;exitDx=0;exitDy=0;entryX=1;entryY=0;entryDx=0;entryDy=0;" parent="1" source="f0wFIG43EovwoNzzDo---131" target="f0wFIG43EovwoNzzDo---130" edge="1">
          <mxGeometry relative="1" as="geometry">
            <Array as="points">
              <mxPoint x="1410" y="970" />
              <mxPoint x="1299" y="970" />
            </Array>
          </mxGeometry>
        </mxCell>
        <mxCell id="f0wFIG43EovwoNzzDo---131" value="Start" style="ellipse;whiteSpace=wrap;html=1;align=center;" parent="1" vertex="1">
          <mxGeometry x="1360" y="900" width="100" height="40" as="geometry" />
        </mxCell>
        <mxCell id="f0wFIG43EovwoNzzDo---135" style="edgeStyle=orthogonalEdgeStyle;rounded=0;orthogonalLoop=1;jettySize=auto;html=1;exitX=1;exitY=1;exitDx=0;exitDy=0;entryX=0;entryY=0.5;entryDx=0;entryDy=0;" parent="1" source="f0wFIG43EovwoNzzDo---132" target="f0wFIG43EovwoNzzDo---130" edge="1">
          <mxGeometry relative="1" as="geometry">
            <Array as="points">
              <mxPoint x="1235" y="955" />
              <mxPoint x="1190" y="955" />
              <mxPoint x="1190" y="1005" />
            </Array>
          </mxGeometry>
        </mxCell>
        <mxCell id="f0wFIG43EovwoNzzDo---132" value="End" style="ellipse;whiteSpace=wrap;html=1;align=center;" parent="1" vertex="1">
          <mxGeometry x="1150" y="890" width="100" height="40" as="geometry" />
        </mxCell>
        <mxCell id="f0wFIG43EovwoNzzDo---140" style="edgeStyle=orthogonalEdgeStyle;rounded=0;orthogonalLoop=1;jettySize=auto;html=1;exitX=0;exitY=0;exitDx=0;exitDy=0;entryX=1;entryY=1;entryDx=0;entryDy=0;" parent="1" source="f0wFIG43EovwoNzzDo---137" target="f0wFIG43EovwoNzzDo---119" edge="1">
          <mxGeometry relative="1" as="geometry">
            <mxPoint x="1190" y="1440" as="targetPoint" />
            <Array as="points">
              <mxPoint x="1330" y="1506" />
              <mxPoint x="1330" y="1480" />
              <mxPoint x="1315" y="1480" />
            </Array>
          </mxGeometry>
        </mxCell>
        <mxCell id="f0wFIG43EovwoNzzDo---137" value="City" style="ellipse;whiteSpace=wrap;html=1;align=center;" parent="1" vertex="1">
          <mxGeometry x="1330" y="1500" width="100" height="40" as="geometry" />
        </mxCell>
        <mxCell id="f0wFIG43EovwoNzzDo---139" style="edgeStyle=orthogonalEdgeStyle;rounded=0;orthogonalLoop=1;jettySize=auto;html=1;exitX=0.5;exitY=0;exitDx=0;exitDy=0;entryX=0;entryY=1;entryDx=0;entryDy=0;" parent="1" source="f0wFIG43EovwoNzzDo---138" target="f0wFIG43EovwoNzzDo---119" edge="1">
          <mxGeometry relative="1" as="geometry" />
        </mxCell>
        <mxCell id="f0wFIG43EovwoNzzDo---138" value="Street" style="ellipse;whiteSpace=wrap;html=1;align=center;" parent="1" vertex="1">
          <mxGeometry x="1220" y="1540" width="100" height="40" as="geometry" />
        </mxCell>
        <mxCell id="f0wFIG43EovwoNzzDo---151" style="edgeStyle=orthogonalEdgeStyle;rounded=0;orthogonalLoop=1;jettySize=auto;html=1;exitX=0;exitY=0;exitDx=0;exitDy=0;entryX=0.922;entryY=1.055;entryDx=0;entryDy=0;entryPerimeter=0;" parent="1" source="f0wFIG43EovwoNzzDo---113" target="f0wFIG43EovwoNzzDo---4" edge="1">
          <mxGeometry relative="1" as="geometry" />
        </mxCell>
        <mxCell id="f0wFIG43EovwoNzzDo---184" value="E ssn" style="ellipse;whiteSpace=wrap;html=1;align=center;" parent="1" vertex="1">
          <mxGeometry x="-610" y="1020" width="100" height="40" as="geometry" />
        </mxCell>
        <mxCell id="zqs60qk11nFN9drXHB8x-44" style="edgeStyle=orthogonalEdgeStyle;rounded=0;orthogonalLoop=1;jettySize=auto;html=1;exitX=1;exitY=0;exitDx=0;exitDy=0;entryX=0.5;entryY=1;entryDx=0;entryDy=0;" edge="1" parent="1" source="f0wFIG43EovwoNzzDo---185" target="f0wFIG43EovwoNzzDo---9">
          <mxGeometry relative="1" as="geometry" />
        </mxCell>
        <mxCell id="f0wFIG43EovwoNzzDo---185" value="E salary" style="ellipse;whiteSpace=wrap;html=1;align=center;" parent="1" vertex="1">
          <mxGeometry x="-330" y="1290" width="100" height="40" as="geometry" />
        </mxCell>
        <mxCell id="rXcHyY6dW85WbXA3lwDJ-18" style="edgeStyle=orthogonalEdgeStyle;rounded=0;orthogonalLoop=1;jettySize=auto;html=1;exitX=1;exitY=0.5;exitDx=0;exitDy=0;entryX=0;entryY=0.5;entryDx=0;entryDy=0;" parent="1" source="f0wFIG43EovwoNzzDo---187" target="f0wFIG43EovwoNzzDo---9" edge="1">
          <mxGeometry relative="1" as="geometry" />
        </mxCell>
        <mxCell id="f0wFIG43EovwoNzzDo---187" value="E age" style="ellipse;whiteSpace=wrap;html=1;align=center;" parent="1" vertex="1">
          <mxGeometry x="-550" y="1140" width="100" height="40" as="geometry" />
        </mxCell>
        <mxCell id="rXcHyY6dW85WbXA3lwDJ-20" style="edgeStyle=orthogonalEdgeStyle;rounded=0;orthogonalLoop=1;jettySize=auto;html=1;exitX=1;exitY=0.5;exitDx=0;exitDy=0;entryX=0;entryY=0;entryDx=0;entryDy=0;" parent="1" source="f0wFIG43EovwoNzzDo---188" target="f0wFIG43EovwoNzzDo---9" edge="1">
          <mxGeometry relative="1" as="geometry">
            <Array as="points">
              <mxPoint x="-250" y="1100" />
              <mxPoint x="-140" y="1100" />
            </Array>
          </mxGeometry>
        </mxCell>
        <mxCell id="f0wFIG43EovwoNzzDo---188" value="E name" style="ellipse;whiteSpace=wrap;html=1;align=center;" parent="1" vertex="1">
          <mxGeometry x="-560" y="1060" width="100" height="40" as="geometry" />
        </mxCell>
        <mxCell id="f0wFIG43EovwoNzzDo---206" style="edgeStyle=orthogonalEdgeStyle;rounded=0;orthogonalLoop=1;jettySize=auto;html=1;exitX=0.5;exitY=0;exitDx=0;exitDy=0;entryX=0.25;entryY=1;entryDx=0;entryDy=0;" parent="1" source="f0wFIG43EovwoNzzDo---189" target="f0wFIG43EovwoNzzDo---9" edge="1">
          <mxGeometry relative="1" as="geometry" />
        </mxCell>
        <mxCell id="f0wFIG43EovwoNzzDo---189" value="E address" style="ellipse;whiteSpace=wrap;html=1;align=center;" parent="1" vertex="1">
          <mxGeometry x="-450" y="1300" width="100" height="40" as="geometry" />
        </mxCell>
        <mxCell id="rXcHyY6dW85WbXA3lwDJ-17" style="edgeStyle=orthogonalEdgeStyle;rounded=0;orthogonalLoop=1;jettySize=auto;html=1;exitX=1;exitY=0;exitDx=0;exitDy=0;entryX=0;entryY=1;entryDx=0;entryDy=0;" parent="1" source="f0wFIG43EovwoNzzDo---190" target="f0wFIG43EovwoNzzDo---9" edge="1">
          <mxGeometry relative="1" as="geometry" />
        </mxCell>
        <mxCell id="f0wFIG43EovwoNzzDo---190" value="E marital status" style="ellipse;whiteSpace=wrap;html=1;align=center;" parent="1" vertex="1">
          <mxGeometry x="-590" y="1210" width="100" height="40" as="geometry" />
        </mxCell>
        <mxCell id="f0wFIG43EovwoNzzDo---197" style="edgeStyle=orthogonalEdgeStyle;rounded=0;orthogonalLoop=1;jettySize=auto;html=1;exitX=1;exitY=0;exitDx=0;exitDy=0;entryX=0;entryY=0.75;entryDx=0;entryDy=0;" parent="1" source="f0wFIG43EovwoNzzDo---191" target="f0wFIG43EovwoNzzDo---9" edge="1">
          <mxGeometry relative="1" as="geometry" />
        </mxCell>
        <mxCell id="f0wFIG43EovwoNzzDo---191" value="E email" style="ellipse;whiteSpace=wrap;html=1;align=center;" parent="1" vertex="1">
          <mxGeometry x="-430" y="1170" width="100" height="40" as="geometry" />
        </mxCell>
        <mxCell id="f0wFIG43EovwoNzzDo---192" value="City" style="ellipse;whiteSpace=wrap;html=1;align=center;" parent="1" vertex="1">
          <mxGeometry x="-410" y="1400" width="100" height="40" as="geometry" />
        </mxCell>
        <mxCell id="f0wFIG43EovwoNzzDo---193" value="Street" style="ellipse;whiteSpace=wrap;html=1;align=center;" parent="1" vertex="1">
          <mxGeometry x="-560" y="1380" width="100" height="40" as="geometry" />
        </mxCell>
        <mxCell id="rXcHyY6dW85WbXA3lwDJ-22" style="edgeStyle=orthogonalEdgeStyle;rounded=0;orthogonalLoop=1;jettySize=auto;html=1;exitX=1;exitY=1;exitDx=0;exitDy=0;entryX=0.25;entryY=0;entryDx=0;entryDy=0;" parent="1" source="f0wFIG43EovwoNzzDo---194" target="f0wFIG43EovwoNzzDo---9" edge="1">
          <mxGeometry relative="1" as="geometry">
            <mxPoint x="-100" y="1130" as="targetPoint" />
          </mxGeometry>
        </mxCell>
        <mxCell id="rXcHyY6dW85WbXA3lwDJ-19" style="edgeStyle=orthogonalEdgeStyle;rounded=0;orthogonalLoop=1;jettySize=auto;html=1;exitX=1;exitY=0.5;exitDx=0;exitDy=0;entryX=0;entryY=0.25;entryDx=0;entryDy=0;" parent="1" source="f0wFIG43EovwoNzzDo---195" target="f0wFIG43EovwoNzzDo---9" edge="1">
          <mxGeometry relative="1" as="geometry" />
        </mxCell>
        <mxCell id="f0wFIG43EovwoNzzDo---195" value="E id" style="ellipse;whiteSpace=wrap;html=1;align=center;fontStyle=4;" parent="1" vertex="1">
          <mxGeometry x="-670" y="1110" width="100" height="40" as="geometry" />
        </mxCell>
        <mxCell id="f0wFIG43EovwoNzzDo---207" style="edgeStyle=orthogonalEdgeStyle;rounded=0;orthogonalLoop=1;jettySize=auto;html=1;exitX=0.5;exitY=0;exitDx=0;exitDy=0;entryX=0.28;entryY=1.037;entryDx=0;entryDy=0;entryPerimeter=0;" parent="1" source="f0wFIG43EovwoNzzDo---193" target="f0wFIG43EovwoNzzDo---189" edge="1">
          <mxGeometry relative="1" as="geometry" />
        </mxCell>
        <mxCell id="f0wFIG43EovwoNzzDo---208" style="edgeStyle=orthogonalEdgeStyle;rounded=0;orthogonalLoop=1;jettySize=auto;html=1;exitX=0;exitY=0;exitDx=0;exitDy=0;entryX=0.701;entryY=1.062;entryDx=0;entryDy=0;entryPerimeter=0;" parent="1" source="f0wFIG43EovwoNzzDo---192" target="f0wFIG43EovwoNzzDo---189" edge="1">
          <mxGeometry relative="1" as="geometry" />
        </mxCell>
        <mxCell id="f0wFIG43EovwoNzzDo---209" value="B location" style="ellipse;whiteSpace=wrap;html=1;align=center;" parent="1" vertex="1">
          <mxGeometry x="-950" y="1730" width="100" height="40" as="geometry" />
        </mxCell>
        <mxCell id="f0wFIG43EovwoNzzDo---216" style="edgeStyle=orthogonalEdgeStyle;rounded=0;orthogonalLoop=1;jettySize=auto;html=1;exitX=0;exitY=0.5;exitDx=0;exitDy=0;entryX=1;entryY=0.25;entryDx=0;entryDy=0;" parent="1" source="f0wFIG43EovwoNzzDo---211" target="f0wFIG43EovwoNzzDo---10" edge="1">
          <mxGeometry relative="1" as="geometry" />
        </mxCell>
        <mxCell id="f0wFIG43EovwoNzzDo---211" value="B type" style="ellipse;whiteSpace=wrap;html=1;align=center;" parent="1" vertex="1">
          <mxGeometry x="-650" y="1700" width="100" height="40" as="geometry" />
        </mxCell>
        <mxCell id="f0wFIG43EovwoNzzDo---212" value="B id" style="ellipse;whiteSpace=wrap;html=1;align=center;fontStyle=4;" parent="1" vertex="1">
          <mxGeometry x="-750" y="1650" width="100" height="40" as="geometry" />
        </mxCell>
        <mxCell id="f0wFIG43EovwoNzzDo---213" style="edgeStyle=orthogonalEdgeStyle;rounded=0;orthogonalLoop=1;jettySize=auto;html=1;exitX=0.5;exitY=1;exitDx=0;exitDy=0;entryX=0;entryY=0.25;entryDx=0;entryDy=0;" parent="1" source="f0wFIG43EovwoNzzDo---209" target="f0wFIG43EovwoNzzDo---10" edge="1">
          <mxGeometry relative="1" as="geometry" />
        </mxCell>
        <mxCell id="f0wFIG43EovwoNzzDo---215" style="edgeStyle=orthogonalEdgeStyle;rounded=0;orthogonalLoop=1;jettySize=auto;html=1;exitX=0;exitY=0.5;exitDx=0;exitDy=0;entryX=0.5;entryY=0;entryDx=0;entryDy=0;" parent="1" source="f0wFIG43EovwoNzzDo---212" target="f0wFIG43EovwoNzzDo---10" edge="1">
          <mxGeometry relative="1" as="geometry" />
        </mxCell>
        <mxCell id="f0wFIG43EovwoNzzDo---226" style="edgeStyle=orthogonalEdgeStyle;rounded=0;orthogonalLoop=1;jettySize=auto;html=1;exitX=0.5;exitY=1;exitDx=0;exitDy=0;entryX=1;entryY=0;entryDx=0;entryDy=0;" parent="1" source="f0wFIG43EovwoNzzDo---217" target="f0wFIG43EovwoNzzDo---11" edge="1">
          <mxGeometry relative="1" as="geometry" />
        </mxCell>
        <mxCell id="f0wFIG43EovwoNzzDo---217" value="Ev name" style="ellipse;whiteSpace=wrap;html=1;align=center;" parent="1" vertex="1">
          <mxGeometry x="-5" y="1700" width="100" height="40" as="geometry" />
        </mxCell>
        <mxCell id="f0wFIG43EovwoNzzDo---232" style="edgeStyle=orthogonalEdgeStyle;rounded=0;orthogonalLoop=1;jettySize=auto;html=1;exitX=1;exitY=0;exitDx=0;exitDy=0;entryX=0.25;entryY=1;entryDx=0;entryDy=0;" parent="1" source="f0wFIG43EovwoNzzDo---218" target="f0wFIG43EovwoNzzDo---11" edge="1">
          <mxGeometry relative="1" as="geometry" />
        </mxCell>
        <mxCell id="f0wFIG43EovwoNzzDo---218" value="Ev id" style="ellipse;whiteSpace=wrap;html=1;align=center;fontStyle=4;" parent="1" vertex="1">
          <mxGeometry x="-185" y="1930" width="100" height="40" as="geometry" />
        </mxCell>
        <mxCell id="f0wFIG43EovwoNzzDo---219" value="Ev type" style="ellipse;whiteSpace=wrap;html=1;align=center;" parent="1" vertex="1">
          <mxGeometry x="-75" y="1935" width="100" height="40" as="geometry" />
        </mxCell>
        <mxCell id="f0wFIG43EovwoNzzDo---230" style="edgeStyle=orthogonalEdgeStyle;rounded=0;orthogonalLoop=1;jettySize=auto;html=1;exitX=0;exitY=0.5;exitDx=0;exitDy=0;entryX=1;entryY=0.5;entryDx=0;entryDy=0;" parent="1" source="f0wFIG43EovwoNzzDo---220" target="f0wFIG43EovwoNzzDo---11" edge="1">
          <mxGeometry relative="1" as="geometry" />
        </mxCell>
        <mxCell id="f0wFIG43EovwoNzzDo---220" value="Ev time" style="ellipse;whiteSpace=wrap;html=1;align=center;" parent="1" vertex="1">
          <mxGeometry x="65" y="1820" width="100" height="40" as="geometry" />
        </mxCell>
        <mxCell id="f0wFIG43EovwoNzzDo---221" value="End" style="ellipse;whiteSpace=wrap;html=1;align=center;" parent="1" vertex="1">
          <mxGeometry x="145" y="1760" width="100" height="40" as="geometry" />
        </mxCell>
        <mxCell id="f0wFIG43EovwoNzzDo---225" style="edgeStyle=orthogonalEdgeStyle;rounded=0;orthogonalLoop=1;jettySize=auto;html=1;exitX=0;exitY=0;exitDx=0;exitDy=0;entryX=1;entryY=1;entryDx=0;entryDy=0;" parent="1" source="f0wFIG43EovwoNzzDo---222" target="f0wFIG43EovwoNzzDo---220" edge="1">
          <mxGeometry relative="1" as="geometry" />
        </mxCell>
        <mxCell id="f0wFIG43EovwoNzzDo---222" value="Start" style="ellipse;whiteSpace=wrap;html=1;align=center;" parent="1" vertex="1">
          <mxGeometry x="165" y="1880" width="100" height="40" as="geometry" />
        </mxCell>
        <mxCell id="f0wFIG43EovwoNzzDo---223" value="Ev evtickets_price" style="ellipse;whiteSpace=wrap;html=1;align=center;" parent="1" vertex="1">
          <mxGeometry x="35" y="1930" width="100" height="50" as="geometry" />
        </mxCell>
        <mxCell id="f0wFIG43EovwoNzzDo---224" style="edgeStyle=orthogonalEdgeStyle;rounded=0;orthogonalLoop=1;jettySize=auto;html=1;exitX=0;exitY=1;exitDx=0;exitDy=0;entryX=1;entryY=0;entryDx=0;entryDy=0;" parent="1" source="f0wFIG43EovwoNzzDo---221" target="f0wFIG43EovwoNzzDo---220" edge="1">
          <mxGeometry relative="1" as="geometry" />
        </mxCell>
        <mxCell id="f0wFIG43EovwoNzzDo---227" style="edgeStyle=orthogonalEdgeStyle;rounded=0;orthogonalLoop=1;jettySize=auto;html=1;exitX=0.5;exitY=0;exitDx=0;exitDy=0;entryX=0.91;entryY=0.929;entryDx=0;entryDy=0;entryPerimeter=0;" parent="1" source="f0wFIG43EovwoNzzDo---223" target="f0wFIG43EovwoNzzDo---11" edge="1">
          <mxGeometry relative="1" as="geometry" />
        </mxCell>
        <mxCell id="f0wFIG43EovwoNzzDo---231" style="edgeStyle=orthogonalEdgeStyle;rounded=0;orthogonalLoop=1;jettySize=auto;html=1;exitX=0.5;exitY=0;exitDx=0;exitDy=0;entryX=0.636;entryY=1.04;entryDx=0;entryDy=0;entryPerimeter=0;" parent="1" source="f0wFIG43EovwoNzzDo---219" target="f0wFIG43EovwoNzzDo---11" edge="1">
          <mxGeometry relative="1" as="geometry" />
        </mxCell>
        <mxCell id="f0wFIG43EovwoNzzDo---233" value="Services" style="whiteSpace=wrap;html=1;align=center;" parent="1" vertex="1">
          <mxGeometry x="1050" y="1805" width="100" height="40" as="geometry" />
        </mxCell>
        <mxCell id="f0wFIG43EovwoNzzDo---240" style="edgeStyle=orthogonalEdgeStyle;rounded=0;orthogonalLoop=1;jettySize=auto;html=1;exitX=0.5;exitY=1;exitDx=0;exitDy=0;entryX=0;entryY=0;entryDx=0;entryDy=0;" parent="1" source="f0wFIG43EovwoNzzDo---234" target="f0wFIG43EovwoNzzDo---233" edge="1">
          <mxGeometry relative="1" as="geometry">
            <Array as="points">
              <mxPoint x="960" y="1785" />
              <mxPoint x="1050" y="1785" />
            </Array>
          </mxGeometry>
        </mxCell>
        <mxCell id="f0wFIG43EovwoNzzDo---234" value="S type" style="ellipse;whiteSpace=wrap;html=1;align=center;" parent="1" vertex="1">
          <mxGeometry x="910" y="1725" width="100" height="40" as="geometry" />
        </mxCell>
        <mxCell id="f0wFIG43EovwoNzzDo---235" value=" S id" style="ellipse;whiteSpace=wrap;html=1;align=center;fontStyle=4;" parent="1" vertex="1">
          <mxGeometry x="1210" y="1685" width="100" height="40" as="geometry" />
        </mxCell>
        <mxCell id="f0wFIG43EovwoNzzDo---236" value="Start" style="ellipse;whiteSpace=wrap;html=1;align=center;" parent="1" vertex="1">
          <mxGeometry x="1180" y="1965" width="100" height="40" as="geometry" />
        </mxCell>
        <mxCell id="f0wFIG43EovwoNzzDo---237" value=" End" style="ellipse;whiteSpace=wrap;html=1;align=center;" parent="1" vertex="1">
          <mxGeometry x="1330" y="1895" width="100" height="40" as="geometry" />
        </mxCell>
        <mxCell id="f0wFIG43EovwoNzzDo---243" style="edgeStyle=orthogonalEdgeStyle;rounded=0;orthogonalLoop=1;jettySize=auto;html=1;exitX=0;exitY=0.5;exitDx=0;exitDy=0;entryX=1;entryY=0.5;entryDx=0;entryDy=0;" parent="1" source="f0wFIG43EovwoNzzDo---238" target="f0wFIG43EovwoNzzDo---233" edge="1">
          <mxGeometry relative="1" as="geometry" />
        </mxCell>
        <mxCell id="f0wFIG43EovwoNzzDo---238" value=" S time" style="ellipse;whiteSpace=wrap;html=1;align=center;" parent="1" vertex="1">
          <mxGeometry x="1200" y="1865" width="100" height="40" as="geometry" />
        </mxCell>
        <mxCell id="f0wFIG43EovwoNzzDo---242" style="edgeStyle=orthogonalEdgeStyle;rounded=0;orthogonalLoop=1;jettySize=auto;html=1;exitX=0;exitY=0.5;exitDx=0;exitDy=0;entryX=1;entryY=0.25;entryDx=0;entryDy=0;" parent="1" source="f0wFIG43EovwoNzzDo---239" target="f0wFIG43EovwoNzzDo---233" edge="1">
          <mxGeometry relative="1" as="geometry" />
        </mxCell>
        <mxCell id="f0wFIG43EovwoNzzDo---239" value=" S name" style="ellipse;whiteSpace=wrap;html=1;align=center;" parent="1" vertex="1">
          <mxGeometry x="1260" y="1755" width="100" height="40" as="geometry" />
        </mxCell>
        <mxCell id="f0wFIG43EovwoNzzDo---241" style="edgeStyle=orthogonalEdgeStyle;rounded=0;orthogonalLoop=1;jettySize=auto;html=1;exitX=0;exitY=1;exitDx=0;exitDy=0;entryX=0.869;entryY=0.088;entryDx=0;entryDy=0;entryPerimeter=0;" parent="1" source="f0wFIG43EovwoNzzDo---235" target="f0wFIG43EovwoNzzDo---233" edge="1">
          <mxGeometry relative="1" as="geometry" />
        </mxCell>
        <mxCell id="f0wFIG43EovwoNzzDo---244" style="edgeStyle=orthogonalEdgeStyle;rounded=0;orthogonalLoop=1;jettySize=auto;html=1;exitX=0;exitY=0;exitDx=0;exitDy=0;entryX=0.964;entryY=0.653;entryDx=0;entryDy=0;entryPerimeter=0;" parent="1" source="f0wFIG43EovwoNzzDo---237" target="f0wFIG43EovwoNzzDo---238" edge="1">
          <mxGeometry relative="1" as="geometry" />
        </mxCell>
        <mxCell id="f0wFIG43EovwoNzzDo---245" style="edgeStyle=orthogonalEdgeStyle;rounded=0;orthogonalLoop=1;jettySize=auto;html=1;exitX=0.5;exitY=0;exitDx=0;exitDy=0;entryX=0.58;entryY=1.05;entryDx=0;entryDy=0;entryPerimeter=0;" parent="1" source="f0wFIG43EovwoNzzDo---236" target="f0wFIG43EovwoNzzDo---238" edge="1">
          <mxGeometry relative="1" as="geometry" />
        </mxCell>
        <mxCell id="f0wFIG43EovwoNzzDo---246" value="expenses" style="rounded=1;arcSize=10;whiteSpace=wrap;html=1;align=center;" parent="1" vertex="1">
          <mxGeometry x="-10" y="-1210" width="100" height="40" as="geometry" />
        </mxCell>
        <mxCell id="f0wFIG43EovwoNzzDo---254" style="edgeStyle=orthogonalEdgeStyle;rounded=0;orthogonalLoop=1;jettySize=auto;html=1;exitX=0.5;exitY=1;exitDx=0;exitDy=0;entryX=0.119;entryY=-0.029;entryDx=0;entryDy=0;entryPerimeter=0;" parent="1" source="f0wFIG43EovwoNzzDo---250" target="f0wFIG43EovwoNzzDo---246" edge="1">
          <mxGeometry relative="1" as="geometry">
            <Array as="points">
              <mxPoint x="-100" y="-1280" />
              <mxPoint y="-1280" />
              <mxPoint y="-1220" />
              <mxPoint x="2" y="-1220" />
            </Array>
          </mxGeometry>
        </mxCell>
        <mxCell id="f0wFIG43EovwoNzzDo---250" value="password" style="ellipse;whiteSpace=wrap;html=1;align=center;" parent="1" vertex="1">
          <mxGeometry x="-160" y="-1370" width="100" height="40" as="geometry" />
        </mxCell>
        <mxCell id="f0wFIG43EovwoNzzDo---255" value="Teams" style="whiteSpace=wrap;html=1;align=center;" parent="1" vertex="1">
          <mxGeometry x="-110" y="100" width="100" height="40" as="geometry" />
        </mxCell>
        <mxCell id="f0wFIG43EovwoNzzDo---304" style="edgeStyle=orthogonalEdgeStyle;rounded=0;orthogonalLoop=1;jettySize=auto;html=1;exitX=0.5;exitY=0;exitDx=0;exitDy=0;entryX=0.75;entryY=1;entryDx=0;entryDy=0;" parent="1" source="f0wFIG43EovwoNzzDo---257" target="f0wFIG43EovwoNzzDo---255" edge="1">
          <mxGeometry relative="1" as="geometry" />
        </mxCell>
        <mxCell id="f0wFIG43EovwoNzzDo---257" value="T name" style="ellipse;whiteSpace=wrap;html=1;align=center;" parent="1" vertex="1">
          <mxGeometry x="-10" y="280" width="100" height="40" as="geometry" />
        </mxCell>
        <mxCell id="f0wFIG43EovwoNzzDo---258" style="edgeStyle=orthogonalEdgeStyle;rounded=0;orthogonalLoop=1;jettySize=auto;html=1;exitX=0.67;exitY=0.121;exitDx=0;exitDy=0;entryX=0.5;entryY=1;entryDx=0;entryDy=0;exitPerimeter=0;" parent="1" source="f0wFIG43EovwoNzzDo---259" edge="1">
          <mxGeometry relative="1" as="geometry">
            <mxPoint x="-160" y="300.0000000000002" as="sourcePoint" />
            <mxPoint x="-80" y="140.00000000000023" as="targetPoint" />
            <Array as="points">
              <mxPoint x="-123" y="300" />
              <mxPoint x="-100" y="300" />
              <mxPoint x="-100" y="230" />
              <mxPoint x="-80" y="230" />
            </Array>
          </mxGeometry>
        </mxCell>
        <mxCell id="f0wFIG43EovwoNzzDo---259" value=" T id" style="ellipse;whiteSpace=wrap;html=1;align=center;fontStyle=4;" parent="1" vertex="1">
          <mxGeometry x="-190" y="300" width="100" height="40" as="geometry" />
        </mxCell>
        <mxCell id="f0wFIG43EovwoNzzDo---260" style="edgeStyle=orthogonalEdgeStyle;rounded=0;orthogonalLoop=1;jettySize=auto;html=1;exitX=1;exitY=0;exitDx=0;exitDy=0;entryX=0;entryY=1;entryDx=0;entryDy=0;" parent="1" source="f0wFIG43EovwoNzzDo---261" target="f0wFIG43EovwoNzzDo---255" edge="1">
          <mxGeometry relative="1" as="geometry">
            <Array as="points">
              <mxPoint x="-125" y="210" />
              <mxPoint x="-110" y="210" />
            </Array>
          </mxGeometry>
        </mxCell>
        <mxCell id="f0wFIG43EovwoNzzDo---261" value=" T leader" style="ellipse;whiteSpace=wrap;html=1;align=center;" parent="1" vertex="1">
          <mxGeometry x="-210" y="230" width="100" height="40" as="geometry" />
        </mxCell>
        <mxCell id="f0wFIG43EovwoNzzDo---279" style="edgeStyle=orthogonalEdgeStyle;rounded=0;orthogonalLoop=1;jettySize=auto;html=1;exitX=1;exitY=0.5;exitDx=0;exitDy=0;entryX=0;entryY=0.5;entryDx=0;entryDy=0;" parent="1" source="f0wFIG43EovwoNzzDo---278" target="f0wFIG43EovwoNzzDo---255" edge="1">
          <mxGeometry relative="1" as="geometry" />
        </mxCell>
        <mxCell id="zqs60qk11nFN9drXHB8x-5" value="1" style="edgeLabel;html=1;align=center;verticalAlign=middle;resizable=0;points=[];" vertex="1" connectable="0" parent="f0wFIG43EovwoNzzDo---279">
          <mxGeometry x="0.4652" y="3" relative="1" as="geometry">
            <mxPoint as="offset" />
          </mxGeometry>
        </mxCell>
        <mxCell id="f0wFIG43EovwoNzzDo---280" style="edgeStyle=orthogonalEdgeStyle;rounded=0;orthogonalLoop=1;jettySize=auto;html=1;exitX=0;exitY=0.5;exitDx=0;exitDy=0;entryX=1;entryY=0.75;entryDx=0;entryDy=0;" parent="1" source="f0wFIG43EovwoNzzDo---278" target="f0wFIG43EovwoNzzDo---1" edge="1">
          <mxGeometry relative="1" as="geometry" />
        </mxCell>
        <mxCell id="zqs60qk11nFN9drXHB8x-4" value="m" style="edgeLabel;html=1;align=center;verticalAlign=middle;resizable=0;points=[];" vertex="1" connectable="0" parent="f0wFIG43EovwoNzzDo---280">
          <mxGeometry x="0.4069" y="4" relative="1" as="geometry">
            <mxPoint as="offset" />
          </mxGeometry>
        </mxCell>
        <mxCell id="f0wFIG43EovwoNzzDo---278" value="play" style="shape=rhombus;perimeter=rhombusPerimeter;whiteSpace=wrap;html=1;align=center;" parent="1" vertex="1">
          <mxGeometry x="-400" y="160" width="120" height="60" as="geometry" />
        </mxCell>
        <mxCell id="f0wFIG43EovwoNzzDo---283" style="edgeStyle=orthogonalEdgeStyle;rounded=0;orthogonalLoop=1;jettySize=auto;html=1;exitX=0.5;exitY=1;exitDx=0;exitDy=0;" parent="1" source="f0wFIG43EovwoNzzDo---281" target="f0wFIG43EovwoNzzDo---255" edge="1">
          <mxGeometry relative="1" as="geometry" />
        </mxCell>
        <mxCell id="zqs60qk11nFN9drXHB8x-3" value="m" style="edgeLabel;html=1;align=center;verticalAlign=middle;resizable=0;points=[];" vertex="1" connectable="0" parent="f0wFIG43EovwoNzzDo---283">
          <mxGeometry x="0.2242" relative="1" as="geometry">
            <mxPoint as="offset" />
          </mxGeometry>
        </mxCell>
        <mxCell id="f0wFIG43EovwoNzzDo---281" value="participate in" style="shape=rhombus;perimeter=rhombusPerimeter;whiteSpace=wrap;html=1;align=center;" parent="1" vertex="1">
          <mxGeometry x="-110" y="-60" width="120" height="60" as="geometry" />
        </mxCell>
        <mxCell id="f0wFIG43EovwoNzzDo---282" style="edgeStyle=orthogonalEdgeStyle;rounded=0;orthogonalLoop=1;jettySize=auto;html=1;exitX=0.5;exitY=0;exitDx=0;exitDy=0;entryX=0.654;entryY=0.934;entryDx=0;entryDy=0;entryPerimeter=0;" parent="1" source="f0wFIG43EovwoNzzDo---281" target="f0wFIG43EovwoNzzDo---6" edge="1">
          <mxGeometry relative="1" as="geometry" />
        </mxCell>
        <mxCell id="zqs60qk11nFN9drXHB8x-2" value="1" style="edgeLabel;html=1;align=center;verticalAlign=middle;resizable=0;points=[];" vertex="1" connectable="0" parent="f0wFIG43EovwoNzzDo---282">
          <mxGeometry x="0.3837" y="-2" relative="1" as="geometry">
            <mxPoint as="offset" />
          </mxGeometry>
        </mxCell>
        <mxCell id="f0wFIG43EovwoNzzDo---285" style="edgeStyle=orthogonalEdgeStyle;rounded=0;orthogonalLoop=1;jettySize=auto;html=1;exitX=0;exitY=0.5;exitDx=0;exitDy=0;entryX=1;entryY=0.5;entryDx=0;entryDy=0;" parent="1" source="f0wFIG43EovwoNzzDo---284" target="f0wFIG43EovwoNzzDo---255" edge="1">
          <mxGeometry relative="1" as="geometry" />
        </mxCell>
        <mxCell id="zqs60qk11nFN9drXHB8x-9" value="m" style="edgeLabel;html=1;align=center;verticalAlign=middle;resizable=0;points=[];" vertex="1" connectable="0" parent="f0wFIG43EovwoNzzDo---285">
          <mxGeometry x="-0.0187" y="-2" relative="1" as="geometry">
            <mxPoint as="offset" />
          </mxGeometry>
        </mxCell>
        <mxCell id="f0wFIG43EovwoNzzDo---286" style="edgeStyle=orthogonalEdgeStyle;rounded=0;orthogonalLoop=1;jettySize=auto;html=1;exitX=1;exitY=0.5;exitDx=0;exitDy=0;entryX=0;entryY=0.5;entryDx=0;entryDy=0;" parent="1" source="f0wFIG43EovwoNzzDo---284" target="f0wFIG43EovwoNzzDo---56" edge="1">
          <mxGeometry relative="1" as="geometry" />
        </mxCell>
        <mxCell id="zqs60qk11nFN9drXHB8x-10" value="1" style="edgeLabel;html=1;align=center;verticalAlign=middle;resizable=0;points=[];" vertex="1" connectable="0" parent="f0wFIG43EovwoNzzDo---286">
          <mxGeometry x="0.0367" y="5" relative="1" as="geometry">
            <mxPoint as="offset" />
          </mxGeometry>
        </mxCell>
        <mxCell id="f0wFIG43EovwoNzzDo---284" value="guide" style="shape=rhombus;perimeter=rhombusPerimeter;whiteSpace=wrap;html=1;align=center;" parent="1" vertex="1">
          <mxGeometry x="130" y="110" width="120" height="60" as="geometry" />
        </mxCell>
        <mxCell id="f0wFIG43EovwoNzzDo---288" style="edgeStyle=orthogonalEdgeStyle;rounded=0;orthogonalLoop=1;jettySize=auto;html=1;exitX=0;exitY=1;exitDx=0;exitDy=0;entryX=0.761;entryY=0.049;entryDx=0;entryDy=0;entryPerimeter=0;" parent="1" source="f0wFIG43EovwoNzzDo---90" target="f0wFIG43EovwoNzzDo---88" edge="1">
          <mxGeometry relative="1" as="geometry" />
        </mxCell>
        <mxCell id="f0wFIG43EovwoNzzDo---292" style="edgeStyle=orthogonalEdgeStyle;rounded=0;orthogonalLoop=1;jettySize=auto;html=1;exitX=1;exitY=0.5;exitDx=0;exitDy=0;entryX=0;entryY=0.75;entryDx=0;entryDy=0;" parent="1" source="f0wFIG43EovwoNzzDo---291" target="f0wFIG43EovwoNzzDo---2" edge="1">
          <mxGeometry relative="1" as="geometry" />
        </mxCell>
        <mxCell id="zqs60qk11nFN9drXHB8x-8" value="n" style="edgeLabel;html=1;align=center;verticalAlign=middle;resizable=0;points=[];" vertex="1" connectable="0" parent="f0wFIG43EovwoNzzDo---292">
          <mxGeometry x="0.5977" y="1" relative="1" as="geometry">
            <mxPoint as="offset" />
          </mxGeometry>
        </mxCell>
        <mxCell id="f0wFIG43EovwoNzzDo---293" style="edgeStyle=orthogonalEdgeStyle;rounded=0;orthogonalLoop=1;jettySize=auto;html=1;exitX=0;exitY=0.5;exitDx=0;exitDy=0;entryX=1;entryY=0;entryDx=0;entryDy=0;" parent="1" source="f0wFIG43EovwoNzzDo---291" target="f0wFIG43EovwoNzzDo---255" edge="1">
          <mxGeometry relative="1" as="geometry">
            <Array as="points">
              <mxPoint x="30" y="-80" />
              <mxPoint x="30" y="100" />
            </Array>
          </mxGeometry>
        </mxCell>
        <mxCell id="zqs60qk11nFN9drXHB8x-7" value="m" style="edgeLabel;html=1;align=center;verticalAlign=middle;resizable=0;points=[];" vertex="1" connectable="0" parent="f0wFIG43EovwoNzzDo---293">
          <mxGeometry x="0.696" y="-1" relative="1" as="geometry">
            <mxPoint as="offset" />
          </mxGeometry>
        </mxCell>
        <mxCell id="f0wFIG43EovwoNzzDo---291" value="register" style="shape=rhombus;perimeter=rhombusPerimeter;whiteSpace=wrap;html=1;align=center;" parent="1" vertex="1">
          <mxGeometry x="140" y="-110" width="120" height="60" as="geometry" />
        </mxCell>
        <mxCell id="f0wFIG43EovwoNzzDo---302" style="edgeStyle=orthogonalEdgeStyle;rounded=0;orthogonalLoop=1;jettySize=auto;html=1;exitX=0.5;exitY=0;exitDx=0;exitDy=0;entryX=0.5;entryY=1;entryDx=0;entryDy=0;" parent="1" source="f0wFIG43EovwoNzzDo---301" target="f0wFIG43EovwoNzzDo---255" edge="1">
          <mxGeometry relative="1" as="geometry" />
        </mxCell>
        <mxCell id="zqs60qk11nFN9drXHB8x-12" value="m" style="edgeLabel;html=1;align=center;verticalAlign=middle;resizable=0;points=[];" vertex="1" connectable="0" parent="f0wFIG43EovwoNzzDo---302">
          <mxGeometry x="0.4149" y="-1" relative="1" as="geometry">
            <mxPoint as="offset" />
          </mxGeometry>
        </mxCell>
        <mxCell id="f0wFIG43EovwoNzzDo---303" style="edgeStyle=orthogonalEdgeStyle;rounded=0;orthogonalLoop=1;jettySize=auto;html=1;exitX=0.5;exitY=1;exitDx=0;exitDy=0;entryX=0.5;entryY=0;entryDx=0;entryDy=0;" parent="1" source="f0wFIG43EovwoNzzDo---301" target="f0wFIG43EovwoNzzDo---5" edge="1">
          <mxGeometry relative="1" as="geometry" />
        </mxCell>
        <mxCell id="zqs60qk11nFN9drXHB8x-14" value="n" style="edgeLabel;html=1;align=center;verticalAlign=middle;resizable=0;points=[];" vertex="1" connectable="0" parent="f0wFIG43EovwoNzzDo---303">
          <mxGeometry x="0.5365" y="1" relative="1" as="geometry">
            <mxPoint as="offset" />
          </mxGeometry>
        </mxCell>
        <mxCell id="f0wFIG43EovwoNzzDo---301" value="sponsored by" style="shape=rhombus;perimeter=rhombusPerimeter;whiteSpace=wrap;html=1;align=center;" parent="1" vertex="1">
          <mxGeometry x="-90" y="400" width="120" height="60" as="geometry" />
        </mxCell>
        <mxCell id="rXcHyY6dW85WbXA3lwDJ-9" style="edgeStyle=orthogonalEdgeStyle;rounded=0;orthogonalLoop=1;jettySize=auto;html=1;exitX=0.5;exitY=0;exitDx=0;exitDy=0;entryX=0.5;entryY=1;entryDx=0;entryDy=0;" parent="1" source="rXcHyY6dW85WbXA3lwDJ-8" target="f0wFIG43EovwoNzzDo---5" edge="1">
          <mxGeometry relative="1" as="geometry" />
        </mxCell>
        <mxCell id="zqs60qk11nFN9drXHB8x-15" value="m" style="edgeLabel;html=1;align=center;verticalAlign=middle;resizable=0;points=[];" vertex="1" connectable="0" parent="rXcHyY6dW85WbXA3lwDJ-9">
          <mxGeometry x="0.5115" y="-2" relative="1" as="geometry">
            <mxPoint as="offset" />
          </mxGeometry>
        </mxCell>
        <mxCell id="rXcHyY6dW85WbXA3lwDJ-10" style="edgeStyle=orthogonalEdgeStyle;rounded=0;orthogonalLoop=1;jettySize=auto;html=1;entryX=0.5;entryY=0;entryDx=0;entryDy=0;exitX=0.5;exitY=1;exitDx=0;exitDy=0;" parent="1" source="rXcHyY6dW85WbXA3lwDJ-8" target="f0wFIG43EovwoNzzDo---9" edge="1">
          <mxGeometry relative="1" as="geometry">
            <mxPoint x="70" y="870" as="sourcePoint" />
            <mxPoint x="-740" y="1110" as="targetPoint" />
            <Array as="points">
              <mxPoint y="890" />
              <mxPoint x="-85" y="890" />
            </Array>
          </mxGeometry>
        </mxCell>
        <mxCell id="zqs60qk11nFN9drXHB8x-71" value="1" style="edgeLabel;html=1;align=center;verticalAlign=middle;resizable=0;points=[];" vertex="1" connectable="0" parent="rXcHyY6dW85WbXA3lwDJ-10">
          <mxGeometry x="0.7655" relative="1" as="geometry">
            <mxPoint as="offset" />
          </mxGeometry>
        </mxCell>
        <mxCell id="rXcHyY6dW85WbXA3lwDJ-8" value="negotiate" style="shape=rhombus;perimeter=rhombusPerimeter;whiteSpace=wrap;html=1;align=center;" parent="1" vertex="1">
          <mxGeometry x="-60" y="790" width="120" height="60" as="geometry" />
        </mxCell>
        <mxCell id="rXcHyY6dW85WbXA3lwDJ-12" style="edgeStyle=orthogonalEdgeStyle;rounded=0;orthogonalLoop=1;jettySize=auto;html=1;exitX=0;exitY=0.5;exitDx=0;exitDy=0;entryX=0.866;entryY=-0.001;entryDx=0;entryDy=0;entryPerimeter=0;" parent="1" source="rXcHyY6dW85WbXA3lwDJ-11" target="f0wFIG43EovwoNzzDo---9" edge="1">
          <mxGeometry relative="1" as="geometry">
            <mxPoint x="25" y="1200" as="targetPoint" />
          </mxGeometry>
        </mxCell>
        <mxCell id="zqs60qk11nFN9drXHB8x-49" value="1" style="edgeLabel;html=1;align=center;verticalAlign=middle;resizable=0;points=[];" vertex="1" connectable="0" parent="rXcHyY6dW85WbXA3lwDJ-12">
          <mxGeometry x="0.4593" y="-4" relative="1" as="geometry">
            <mxPoint y="-1" as="offset" />
          </mxGeometry>
        </mxCell>
        <mxCell id="rXcHyY6dW85WbXA3lwDJ-13" style="edgeStyle=orthogonalEdgeStyle;rounded=0;orthogonalLoop=1;jettySize=auto;html=1;exitX=1;exitY=0.5;exitDx=0;exitDy=0;entryX=1;entryY=0.25;entryDx=0;entryDy=0;" parent="1" source="rXcHyY6dW85WbXA3lwDJ-11" target="f0wFIG43EovwoNzzDo---9" edge="1">
          <mxGeometry relative="1" as="geometry">
            <Array as="points">
              <mxPoint x="155" y="1020" />
              <mxPoint x="155" y="1123" />
              <mxPoint x="-30" y="1123" />
            </Array>
            <mxPoint x="50" y="1200" as="targetPoint" />
          </mxGeometry>
        </mxCell>
        <mxCell id="zqs60qk11nFN9drXHB8x-50" value="m" style="edgeLabel;html=1;align=center;verticalAlign=middle;resizable=0;points=[];" vertex="1" connectable="0" parent="rXcHyY6dW85WbXA3lwDJ-13">
          <mxGeometry x="0.7791" y="-2" relative="1" as="geometry">
            <mxPoint as="offset" />
          </mxGeometry>
        </mxCell>
        <mxCell id="rXcHyY6dW85WbXA3lwDJ-11" value="direct" style="shape=rhombus;perimeter=rhombusPerimeter;whiteSpace=wrap;html=1;align=center;" parent="1" vertex="1">
          <mxGeometry x="10" y="990" width="120" height="60" as="geometry" />
        </mxCell>
        <mxCell id="rXcHyY6dW85WbXA3lwDJ-15" style="edgeStyle=orthogonalEdgeStyle;rounded=0;orthogonalLoop=1;jettySize=auto;html=1;exitX=0;exitY=0.5;exitDx=0;exitDy=0;entryX=1;entryY=0.5;entryDx=0;entryDy=0;" parent="1" source="rXcHyY6dW85WbXA3lwDJ-14" target="f0wFIG43EovwoNzzDo---9" edge="1">
          <mxGeometry relative="1" as="geometry">
            <Array as="points">
              <mxPoint x="565" y="1170" />
              <mxPoint x="330" y="1170" />
              <mxPoint x="330" y="1135" />
            </Array>
            <mxPoint x="50" y="1210" as="targetPoint" />
          </mxGeometry>
        </mxCell>
        <mxCell id="zqs60qk11nFN9drXHB8x-48" value="1" style="edgeLabel;html=1;align=center;verticalAlign=middle;resizable=0;points=[];" vertex="1" connectable="0" parent="rXcHyY6dW85WbXA3lwDJ-15">
          <mxGeometry x="0.8358" y="5" relative="1" as="geometry">
            <mxPoint as="offset" />
          </mxGeometry>
        </mxCell>
        <mxCell id="rXcHyY6dW85WbXA3lwDJ-16" style="edgeStyle=orthogonalEdgeStyle;rounded=0;orthogonalLoop=1;jettySize=auto;html=1;exitX=1;exitY=0.5;exitDx=0;exitDy=0;entryX=0;entryY=0;entryDx=0;entryDy=0;" parent="1" source="rXcHyY6dW85WbXA3lwDJ-14" target="f0wFIG43EovwoNzzDo---4" edge="1">
          <mxGeometry relative="1" as="geometry" />
        </mxCell>
        <mxCell id="zqs60qk11nFN9drXHB8x-22" value="m" style="edgeLabel;html=1;align=center;verticalAlign=middle;resizable=0;points=[];" vertex="1" connectable="0" parent="rXcHyY6dW85WbXA3lwDJ-16">
          <mxGeometry x="0.8121" y="1" relative="1" as="geometry">
            <mxPoint as="offset" />
          </mxGeometry>
        </mxCell>
        <mxCell id="rXcHyY6dW85WbXA3lwDJ-14" value="lead" style="shape=rhombus;perimeter=rhombusPerimeter;whiteSpace=wrap;html=1;align=center;" parent="1" vertex="1">
          <mxGeometry x="565" y="1030" width="120" height="60" as="geometry" />
        </mxCell>
        <mxCell id="rXcHyY6dW85WbXA3lwDJ-21" style="edgeStyle=orthogonalEdgeStyle;rounded=0;orthogonalLoop=1;jettySize=auto;html=1;exitX=1;exitY=0.5;exitDx=0;exitDy=0;" parent="1" source="f0wFIG43EovwoNzzDo---184" edge="1">
          <mxGeometry relative="1" as="geometry">
            <mxPoint x="-130" y="1120" as="targetPoint" />
          </mxGeometry>
        </mxCell>
        <mxCell id="rXcHyY6dW85WbXA3lwDJ-28" style="edgeStyle=orthogonalEdgeStyle;rounded=0;orthogonalLoop=1;jettySize=auto;html=1;exitX=0.5;exitY=0;exitDx=0;exitDy=0;entryX=0.5;entryY=1;entryDx=0;entryDy=0;" parent="1" source="rXcHyY6dW85WbXA3lwDJ-26" target="f0wFIG43EovwoNzzDo---3" edge="1">
          <mxGeometry relative="1" as="geometry" />
        </mxCell>
        <mxCell id="zqs60qk11nFN9drXHB8x-30" value="1" style="edgeLabel;html=1;align=center;verticalAlign=middle;resizable=0;points=[];" vertex="1" connectable="0" parent="rXcHyY6dW85WbXA3lwDJ-28">
          <mxGeometry x="0.4423" y="4" relative="1" as="geometry">
            <mxPoint as="offset" />
          </mxGeometry>
        </mxCell>
        <mxCell id="rXcHyY6dW85WbXA3lwDJ-26" value="relay on" style="shape=rhombus;perimeter=rhombusPerimeter;whiteSpace=wrap;html=1;align=center;" parent="1" vertex="1">
          <mxGeometry x="1020" y="810" width="120" height="60" as="geometry" />
        </mxCell>
        <mxCell id="rXcHyY6dW85WbXA3lwDJ-27" style="edgeStyle=orthogonalEdgeStyle;rounded=0;orthogonalLoop=1;jettySize=auto;html=1;exitX=0.5;exitY=1;exitDx=0;exitDy=0;entryX=0.387;entryY=0.077;entryDx=0;entryDy=0;entryPerimeter=0;" parent="1" source="rXcHyY6dW85WbXA3lwDJ-26" target="f0wFIG43EovwoNzzDo---4" edge="1">
          <mxGeometry relative="1" as="geometry" />
        </mxCell>
        <mxCell id="zqs60qk11nFN9drXHB8x-31" value="1" style="edgeLabel;html=1;align=center;verticalAlign=middle;resizable=0;points=[];" vertex="1" connectable="0" parent="rXcHyY6dW85WbXA3lwDJ-27">
          <mxGeometry x="0.7902" relative="1" as="geometry">
            <mxPoint y="1" as="offset" />
          </mxGeometry>
        </mxCell>
        <mxCell id="rXcHyY6dW85WbXA3lwDJ-30" style="edgeStyle=orthogonalEdgeStyle;rounded=0;orthogonalLoop=1;jettySize=auto;html=1;exitX=0.5;exitY=0;exitDx=0;exitDy=0;entryX=1;entryY=1;entryDx=0;entryDy=0;" parent="1" source="rXcHyY6dW85WbXA3lwDJ-29" target="f0wFIG43EovwoNzzDo---9" edge="1">
          <mxGeometry relative="1" as="geometry">
            <mxPoint x="-25" y="1240" as="targetPoint" />
          </mxGeometry>
        </mxCell>
        <mxCell id="zqs60qk11nFN9drXHB8x-72" value="m" style="edgeLabel;html=1;align=center;verticalAlign=middle;resizable=0;points=[];" vertex="1" connectable="0" parent="rXcHyY6dW85WbXA3lwDJ-30">
          <mxGeometry x="0.8563" y="1" relative="1" as="geometry">
            <mxPoint as="offset" />
          </mxGeometry>
        </mxCell>
        <mxCell id="rXcHyY6dW85WbXA3lwDJ-31" style="edgeStyle=orthogonalEdgeStyle;rounded=0;orthogonalLoop=1;jettySize=auto;html=1;exitX=0.5;exitY=1;exitDx=0;exitDy=0;entryX=0.5;entryY=0;entryDx=0;entryDy=0;" parent="1" source="rXcHyY6dW85WbXA3lwDJ-29" target="f0wFIG43EovwoNzzDo---11" edge="1">
          <mxGeometry relative="1" as="geometry" />
        </mxCell>
        <mxCell id="zqs60qk11nFN9drXHB8x-26" value="n" style="edgeLabel;html=1;align=center;verticalAlign=middle;resizable=0;points=[];" vertex="1" connectable="0" parent="rXcHyY6dW85WbXA3lwDJ-31">
          <mxGeometry x="0.505" y="-3" relative="1" as="geometry">
            <mxPoint as="offset" />
          </mxGeometry>
        </mxCell>
        <mxCell id="rXcHyY6dW85WbXA3lwDJ-29" value="organize" style="shape=rhombus;perimeter=rhombusPerimeter;whiteSpace=wrap;html=1;align=center;" parent="1" vertex="1">
          <mxGeometry x="-120" y="1560" width="120" height="60" as="geometry" />
        </mxCell>
        <mxCell id="rXcHyY6dW85WbXA3lwDJ-33" style="edgeStyle=orthogonalEdgeStyle;rounded=0;orthogonalLoop=1;jettySize=auto;html=1;exitX=1;exitY=0.5;exitDx=0;exitDy=0;entryX=0;entryY=0.25;entryDx=0;entryDy=0;" parent="1" source="rXcHyY6dW85WbXA3lwDJ-32" target="f0wFIG43EovwoNzzDo---11" edge="1">
          <mxGeometry relative="1" as="geometry" />
        </mxCell>
        <mxCell id="zqs60qk11nFN9drXHB8x-27" value="m" style="edgeLabel;html=1;align=center;verticalAlign=middle;resizable=0;points=[];" vertex="1" connectable="0" parent="rXcHyY6dW85WbXA3lwDJ-33">
          <mxGeometry x="0.7567" y="-2" relative="1" as="geometry">
            <mxPoint as="offset" />
          </mxGeometry>
        </mxCell>
        <mxCell id="rXcHyY6dW85WbXA3lwDJ-34" style="edgeStyle=orthogonalEdgeStyle;rounded=0;orthogonalLoop=1;jettySize=auto;html=1;exitX=0;exitY=0.5;exitDx=0;exitDy=0;entryX=1;entryY=0.75;entryDx=0;entryDy=0;" parent="1" source="rXcHyY6dW85WbXA3lwDJ-32" target="f0wFIG43EovwoNzzDo---10" edge="1">
          <mxGeometry relative="1" as="geometry" />
        </mxCell>
        <mxCell id="zqs60qk11nFN9drXHB8x-28" value="1" style="edgeLabel;html=1;align=center;verticalAlign=middle;resizable=0;points=[];" vertex="1" connectable="0" parent="rXcHyY6dW85WbXA3lwDJ-34">
          <mxGeometry x="0.4782" y="1" relative="1" as="geometry">
            <mxPoint as="offset" />
          </mxGeometry>
        </mxCell>
        <mxCell id="rXcHyY6dW85WbXA3lwDJ-32" value="prepare in" style="shape=rhombus;perimeter=rhombusPerimeter;whiteSpace=wrap;html=1;align=center;" parent="1" vertex="1">
          <mxGeometry x="-350" y="1660" width="120" height="60" as="geometry" />
        </mxCell>
        <mxCell id="rXcHyY6dW85WbXA3lwDJ-36" style="edgeStyle=orthogonalEdgeStyle;rounded=0;orthogonalLoop=1;jettySize=auto;html=1;exitX=0.5;exitY=0;exitDx=0;exitDy=0;entryX=0.5;entryY=1;entryDx=0;entryDy=0;" parent="1" source="rXcHyY6dW85WbXA3lwDJ-35" target="f0wFIG43EovwoNzzDo---4" edge="1">
          <mxGeometry relative="1" as="geometry" />
        </mxCell>
        <mxCell id="zqs60qk11nFN9drXHB8x-23" value="m" style="edgeLabel;html=1;align=center;verticalAlign=middle;resizable=0;points=[];" vertex="1" connectable="0" parent="rXcHyY6dW85WbXA3lwDJ-36">
          <mxGeometry x="0.3434" relative="1" as="geometry">
            <mxPoint y="1" as="offset" />
          </mxGeometry>
        </mxCell>
        <mxCell id="rXcHyY6dW85WbXA3lwDJ-37" style="edgeStyle=orthogonalEdgeStyle;rounded=0;orthogonalLoop=1;jettySize=auto;html=1;exitX=0.5;exitY=1;exitDx=0;exitDy=0;entryX=0.5;entryY=0;entryDx=0;entryDy=0;" parent="1" source="rXcHyY6dW85WbXA3lwDJ-35" target="f0wFIG43EovwoNzzDo---233" edge="1">
          <mxGeometry relative="1" as="geometry" />
        </mxCell>
        <mxCell id="zqs60qk11nFN9drXHB8x-24" value="n" style="edgeLabel;html=1;align=center;verticalAlign=middle;resizable=0;points=[];" vertex="1" connectable="0" parent="rXcHyY6dW85WbXA3lwDJ-37">
          <mxGeometry x="0.4547" y="-1" relative="1" as="geometry">
            <mxPoint as="offset" />
          </mxGeometry>
        </mxCell>
        <mxCell id="rXcHyY6dW85WbXA3lwDJ-35" value="Benifit" style="shape=rhombus;perimeter=rhombusPerimeter;whiteSpace=wrap;html=1;align=center;" parent="1" vertex="1">
          <mxGeometry x="1060" y="1590" width="120" height="60" as="geometry" />
        </mxCell>
        <mxCell id="rXcHyY6dW85WbXA3lwDJ-49" style="edgeStyle=orthogonalEdgeStyle;rounded=0;orthogonalLoop=1;jettySize=auto;html=1;exitX=0.5;exitY=1;exitDx=0;exitDy=0;entryX=0.907;entryY=-0.039;entryDx=0;entryDy=0;entryPerimeter=0;" parent="1" source="rXcHyY6dW85WbXA3lwDJ-39" target="f0wFIG43EovwoNzzDo---2" edge="1">
          <mxGeometry relative="1" as="geometry">
            <Array as="points">
              <mxPoint x="410" y="-690" />
              <mxPoint x="410" y="-337" />
            </Array>
          </mxGeometry>
        </mxCell>
        <mxCell id="zqs60qk11nFN9drXHB8x-63" value="1" style="edgeLabel;html=1;align=center;verticalAlign=middle;resizable=0;points=[];" vertex="1" connectable="0" parent="rXcHyY6dW85WbXA3lwDJ-49">
          <mxGeometry x="0.6076" y="-1" relative="1" as="geometry">
            <mxPoint y="1" as="offset" />
          </mxGeometry>
        </mxCell>
        <mxCell id="rXcHyY6dW85WbXA3lwDJ-67" style="edgeStyle=orthogonalEdgeStyle;rounded=0;orthogonalLoop=1;jettySize=auto;html=1;exitX=0.5;exitY=0;exitDx=0;exitDy=0;entryX=0.75;entryY=1;entryDx=0;entryDy=0;" parent="1" source="rXcHyY6dW85WbXA3lwDJ-39" target="f0wFIG43EovwoNzzDo---246" edge="1">
          <mxGeometry relative="1" as="geometry">
            <Array as="points">
              <mxPoint x="420" y="-940" />
              <mxPoint x="65" y="-940" />
            </Array>
          </mxGeometry>
        </mxCell>
        <mxCell id="zqs60qk11nFN9drXHB8x-62" value="m" style="edgeLabel;html=1;align=center;verticalAlign=middle;resizable=0;points=[];" vertex="1" connectable="0" parent="rXcHyY6dW85WbXA3lwDJ-67">
          <mxGeometry x="0.8786" y="1" relative="1" as="geometry">
            <mxPoint as="offset" />
          </mxGeometry>
        </mxCell>
        <mxCell id="rXcHyY6dW85WbXA3lwDJ-39" value="Disburse" style="shape=rhombus;perimeter=rhombusPerimeter;whiteSpace=wrap;html=1;align=center;" parent="1" vertex="1">
          <mxGeometry x="360" y="-750" width="120" height="60" as="geometry" />
        </mxCell>
        <mxCell id="rXcHyY6dW85WbXA3lwDJ-47" style="edgeStyle=orthogonalEdgeStyle;rounded=0;orthogonalLoop=1;jettySize=auto;html=1;exitX=0.5;exitY=1;exitDx=0;exitDy=0;entryX=0.25;entryY=0;entryDx=0;entryDy=0;" parent="1" source="rXcHyY6dW85WbXA3lwDJ-40" target="f0wFIG43EovwoNzzDo---5" edge="1">
          <mxGeometry relative="1" as="geometry">
            <Array as="points">
              <mxPoint x="-860" y="-160" />
              <mxPoint x="-1110" y="-160" />
              <mxPoint x="-1110" y="580" />
              <mxPoint x="-45" y="580" />
            </Array>
          </mxGeometry>
        </mxCell>
        <mxCell id="zqs60qk11nFN9drXHB8x-66" value="m" style="edgeLabel;html=1;align=center;verticalAlign=middle;resizable=0;points=[];" vertex="1" connectable="0" parent="rXcHyY6dW85WbXA3lwDJ-47">
          <mxGeometry x="0.9714" y="-5" relative="1" as="geometry">
            <mxPoint as="offset" />
          </mxGeometry>
        </mxCell>
        <mxCell id="rXcHyY6dW85WbXA3lwDJ-64" style="edgeStyle=orthogonalEdgeStyle;rounded=0;orthogonalLoop=1;jettySize=auto;html=1;exitX=0.5;exitY=0;exitDx=0;exitDy=0;entryX=0.112;entryY=1.036;entryDx=0;entryDy=0;entryPerimeter=0;" parent="1" source="rXcHyY6dW85WbXA3lwDJ-40" target="f0wFIG43EovwoNzzDo---246" edge="1">
          <mxGeometry relative="1" as="geometry">
            <Array as="points">
              <mxPoint x="-860" y="-1100" />
              <mxPoint x="1" y="-1100" />
            </Array>
          </mxGeometry>
        </mxCell>
        <mxCell id="zqs60qk11nFN9drXHB8x-67" value="n" style="edgeLabel;html=1;align=center;verticalAlign=middle;resizable=0;points=[];" vertex="1" connectable="0" parent="rXcHyY6dW85WbXA3lwDJ-64">
          <mxGeometry x="0.9373" y="2" relative="1" as="geometry">
            <mxPoint as="offset" />
          </mxGeometry>
        </mxCell>
        <mxCell id="rXcHyY6dW85WbXA3lwDJ-40" value="fund" style="shape=rhombus;perimeter=rhombusPerimeter;whiteSpace=wrap;html=1;align=center;" parent="1" vertex="1">
          <mxGeometry x="-920" y="-720" width="120" height="60" as="geometry" />
        </mxCell>
        <mxCell id="rXcHyY6dW85WbXA3lwDJ-44" style="edgeStyle=orthogonalEdgeStyle;rounded=0;orthogonalLoop=1;jettySize=auto;html=1;exitX=0.5;exitY=1;exitDx=0;exitDy=0;entryX=1;entryY=0;entryDx=0;entryDy=0;" parent="1" source="rXcHyY6dW85WbXA3lwDJ-41" target="f0wFIG43EovwoNzzDo---1" edge="1">
          <mxGeometry relative="1" as="geometry">
            <mxPoint x="-620" y="170" as="targetPoint" />
            <Array as="points">
              <mxPoint x="-610" y="-270" />
              <mxPoint x="-440" y="-270" />
              <mxPoint x="-440" y="160" />
            </Array>
          </mxGeometry>
        </mxCell>
        <mxCell id="zqs60qk11nFN9drXHB8x-64" value="1" style="edgeLabel;html=1;align=center;verticalAlign=middle;resizable=0;points=[];" vertex="1" connectable="0" parent="rXcHyY6dW85WbXA3lwDJ-44">
          <mxGeometry x="0.9442" y="3" relative="1" as="geometry">
            <mxPoint as="offset" />
          </mxGeometry>
        </mxCell>
        <mxCell id="rXcHyY6dW85WbXA3lwDJ-65" style="edgeStyle=orthogonalEdgeStyle;rounded=0;orthogonalLoop=1;jettySize=auto;html=1;exitX=0.5;exitY=0;exitDx=0;exitDy=0;" parent="1" source="rXcHyY6dW85WbXA3lwDJ-41" edge="1">
          <mxGeometry relative="1" as="geometry">
            <mxPoint x="15" y="-1170" as="targetPoint" />
            <Array as="points">
              <mxPoint x="-610" y="-1030" />
              <mxPoint x="15" y="-1030" />
            </Array>
          </mxGeometry>
        </mxCell>
        <mxCell id="zqs60qk11nFN9drXHB8x-65" value="m" style="edgeLabel;html=1;align=center;verticalAlign=middle;resizable=0;points=[];" vertex="1" connectable="0" parent="rXcHyY6dW85WbXA3lwDJ-65">
          <mxGeometry x="0.8189" y="-1" relative="1" as="geometry">
            <mxPoint as="offset" />
          </mxGeometry>
        </mxCell>
        <mxCell id="rXcHyY6dW85WbXA3lwDJ-41" value="expense" style="shape=rhombus;perimeter=rhombusPerimeter;whiteSpace=wrap;html=1;align=center;" parent="1" vertex="1">
          <mxGeometry x="-670" y="-710" width="120" height="60" as="geometry" />
        </mxCell>
        <mxCell id="rXcHyY6dW85WbXA3lwDJ-45" style="edgeStyle=orthogonalEdgeStyle;rounded=0;orthogonalLoop=1;jettySize=auto;html=1;exitX=0.5;exitY=1;exitDx=0;exitDy=0;entryX=0;entryY=0;entryDx=0;entryDy=0;" parent="1" source="rXcHyY6dW85WbXA3lwDJ-42" target="f0wFIG43EovwoNzzDo---255" edge="1">
          <mxGeometry relative="1" as="geometry">
            <Array as="points">
              <mxPoint x="-270" y="-280" />
              <mxPoint x="-160" y="-280" />
              <mxPoint x="-160" y="100" />
            </Array>
          </mxGeometry>
        </mxCell>
        <mxCell id="zqs60qk11nFN9drXHB8x-60" value="1" style="edgeLabel;html=1;align=center;verticalAlign=middle;resizable=0;points=[];" vertex="1" connectable="0" parent="rXcHyY6dW85WbXA3lwDJ-45">
          <mxGeometry x="0.9561" y="-2" relative="1" as="geometry">
            <mxPoint as="offset" />
          </mxGeometry>
        </mxCell>
        <mxCell id="rXcHyY6dW85WbXA3lwDJ-66" style="edgeStyle=orthogonalEdgeStyle;rounded=0;orthogonalLoop=1;jettySize=auto;html=1;exitX=0.5;exitY=0;exitDx=0;exitDy=0;entryX=0.5;entryY=1;entryDx=0;entryDy=0;" parent="1" source="rXcHyY6dW85WbXA3lwDJ-42" target="f0wFIG43EovwoNzzDo---246" edge="1">
          <mxGeometry relative="1" as="geometry" />
        </mxCell>
        <mxCell id="zqs60qk11nFN9drXHB8x-61" value="m" style="edgeLabel;html=1;align=center;verticalAlign=middle;resizable=0;points=[];" vertex="1" connectable="0" parent="rXcHyY6dW85WbXA3lwDJ-66">
          <mxGeometry x="0.9086" y="3" relative="1" as="geometry">
            <mxPoint y="-1" as="offset" />
          </mxGeometry>
        </mxCell>
        <mxCell id="rXcHyY6dW85WbXA3lwDJ-42" value="cost" style="shape=rhombus;perimeter=rhombusPerimeter;whiteSpace=wrap;html=1;align=center;" parent="1" vertex="1">
          <mxGeometry x="-330" y="-720" width="120" height="60" as="geometry" />
        </mxCell>
        <mxCell id="rXcHyY6dW85WbXA3lwDJ-46" style="edgeStyle=orthogonalEdgeStyle;rounded=0;orthogonalLoop=1;jettySize=auto;html=1;exitX=0.5;exitY=1;exitDx=0;exitDy=0;entryX=0;entryY=0;entryDx=0;entryDy=0;" parent="1" source="rXcHyY6dW85WbXA3lwDJ-43" target="f0wFIG43EovwoNzzDo---56" edge="1">
          <mxGeometry relative="1" as="geometry" />
        </mxCell>
        <mxCell id="zqs60qk11nFN9drXHB8x-68" value="1" style="edgeLabel;html=1;align=center;verticalAlign=middle;resizable=0;points=[];" vertex="1" connectable="0" parent="rXcHyY6dW85WbXA3lwDJ-46">
          <mxGeometry x="0.9518" y="-1" relative="1" as="geometry">
            <mxPoint as="offset" />
          </mxGeometry>
        </mxCell>
        <mxCell id="rXcHyY6dW85WbXA3lwDJ-68" style="edgeStyle=orthogonalEdgeStyle;rounded=0;orthogonalLoop=1;jettySize=auto;html=1;exitX=0.5;exitY=0;exitDx=0;exitDy=0;entryX=1;entryY=0.5;entryDx=0;entryDy=0;" parent="1" source="rXcHyY6dW85WbXA3lwDJ-43" target="f0wFIG43EovwoNzzDo---246" edge="1">
          <mxGeometry relative="1" as="geometry">
            <Array as="points">
              <mxPoint x="680" y="-1190" />
            </Array>
          </mxGeometry>
        </mxCell>
        <mxCell id="zqs60qk11nFN9drXHB8x-69" value="m" style="edgeLabel;html=1;align=center;verticalAlign=middle;resizable=0;points=[];" vertex="1" connectable="0" parent="rXcHyY6dW85WbXA3lwDJ-68">
          <mxGeometry x="0.9279" y="2" relative="1" as="geometry">
            <mxPoint as="offset" />
          </mxGeometry>
        </mxCell>
        <mxCell id="rXcHyY6dW85WbXA3lwDJ-43" value="get" style="shape=rhombus;perimeter=rhombusPerimeter;whiteSpace=wrap;html=1;align=center;" parent="1" vertex="1">
          <mxGeometry x="620" y="-720" width="120" height="60" as="geometry" />
        </mxCell>
        <mxCell id="zqs60qk11nFN9drXHB8x-29" style="edgeStyle=orthogonalEdgeStyle;rounded=0;orthogonalLoop=1;jettySize=auto;html=1;exitX=0.5;exitY=1;exitDx=0;exitDy=0;" edge="1" parent="1" source="f0wFIG43EovwoNzzDo---3" target="f0wFIG43EovwoNzzDo---3">
          <mxGeometry relative="1" as="geometry" />
        </mxCell>
        <mxCell id="zqs60qk11nFN9drXHB8x-32" style="edgeStyle=orthogonalEdgeStyle;rounded=0;orthogonalLoop=1;jettySize=auto;html=1;exitX=0;exitY=1;exitDx=0;exitDy=0;" edge="1" parent="1" source="zqs60qk11nFN9drXHB8x-33">
          <mxGeometry relative="1" as="geometry">
            <Array as="points">
              <mxPoint x="205" y="-1380" />
              <mxPoint x="90" y="-1380" />
              <mxPoint x="90" y="-1310" />
              <mxPoint x="30" y="-1310" />
              <mxPoint x="30" y="-1210" />
            </Array>
            <mxPoint x="30" y="-1210" as="targetPoint" />
          </mxGeometry>
        </mxCell>
        <mxCell id="zqs60qk11nFN9drXHB8x-33" value=" ExpenseID " style="ellipse;whiteSpace=wrap;html=1;align=center;fontStyle=4;" vertex="1" parent="1">
          <mxGeometry x="190" y="-1460" width="100" height="40" as="geometry" />
        </mxCell>
        <mxCell id="zqs60qk11nFN9drXHB8x-34" style="edgeStyle=orthogonalEdgeStyle;rounded=0;orthogonalLoop=1;jettySize=auto;html=1;exitX=0;exitY=1;exitDx=0;exitDy=0;entryX=0.75;entryY=0;entryDx=0;entryDy=0;" edge="1" parent="1" source="zqs60qk11nFN9drXHB8x-35" target="f0wFIG43EovwoNzzDo---246">
          <mxGeometry relative="1" as="geometry">
            <Array as="points">
              <mxPoint x="245" y="-1300" />
              <mxPoint x="190" y="-1300" />
              <mxPoint x="190" y="-1250" />
              <mxPoint x="65" y="-1250" />
            </Array>
            <mxPoint x="90" y="-1210" as="targetPoint" />
          </mxGeometry>
        </mxCell>
        <mxCell id="zqs60qk11nFN9drXHB8x-35" value=" ExpenseType" style="ellipse;whiteSpace=wrap;html=1;align=center;" vertex="1" parent="1">
          <mxGeometry x="230" y="-1370" width="100" height="40" as="geometry" />
        </mxCell>
        <mxCell id="zqs60qk11nFN9drXHB8x-36" style="edgeStyle=orthogonalEdgeStyle;rounded=0;orthogonalLoop=1;jettySize=auto;html=1;exitX=0.5;exitY=1;exitDx=0;exitDy=0;entryX=0.25;entryY=0;entryDx=0;entryDy=0;" edge="1" parent="1" source="zqs60qk11nFN9drXHB8x-37">
          <mxGeometry relative="1" as="geometry">
            <Array as="points">
              <mxPoint x="-40" y="-1380" />
              <mxPoint x="15" y="-1380" />
            </Array>
            <mxPoint x="15" y="-1210" as="targetPoint" />
          </mxGeometry>
        </mxCell>
        <mxCell id="zqs60qk11nFN9drXHB8x-37" value="Amount" style="ellipse;whiteSpace=wrap;html=1;align=center;" vertex="1" parent="1">
          <mxGeometry x="-150" y="-1460" width="100" height="40" as="geometry" />
        </mxCell>
        <mxCell id="zqs60qk11nFN9drXHB8x-38" style="edgeStyle=orthogonalEdgeStyle;rounded=0;orthogonalLoop=1;jettySize=auto;html=1;exitX=0.5;exitY=1;exitDx=0;exitDy=0;entryX=0.119;entryY=-0.029;entryDx=0;entryDy=0;entryPerimeter=0;" edge="1" parent="1" source="zqs60qk11nFN9drXHB8x-39">
          <mxGeometry relative="1" as="geometry">
            <Array as="points">
              <mxPoint x="-100" y="-1280" />
              <mxPoint y="-1280" />
              <mxPoint y="-1220" />
              <mxPoint x="2" y="-1220" />
            </Array>
            <mxPoint x="2" y="-1211" as="targetPoint" />
          </mxGeometry>
        </mxCell>
        <mxCell id="zqs60qk11nFN9drXHB8x-39" value=" Date" style="ellipse;whiteSpace=wrap;html=1;align=center;" vertex="1" parent="1">
          <mxGeometry x="-160" y="-1370" width="100" height="40" as="geometry" />
        </mxCell>
        <mxCell id="zqs60qk11nFN9drXHB8x-42" style="edgeStyle=orthogonalEdgeStyle;rounded=0;orthogonalLoop=1;jettySize=auto;html=1;exitX=1;exitY=0.5;exitDx=0;exitDy=0;entryX=0.75;entryY=1;entryDx=0;entryDy=0;" edge="1" parent="1" source="zqs60qk11nFN9drXHB8x-41" target="f0wFIG43EovwoNzzDo---9">
          <mxGeometry relative="1" as="geometry">
            <Array as="points">
              <mxPoint x="-140" y="1350" />
              <mxPoint x="-57" y="1350" />
              <mxPoint x="-57" y="1160" />
            </Array>
          </mxGeometry>
        </mxCell>
        <mxCell id="zqs60qk11nFN9drXHB8x-41" value="Etype" style="ellipse;whiteSpace=wrap;html=1;align=center;" vertex="1" parent="1">
          <mxGeometry x="-240" y="1390" width="100" height="40" as="geometry" />
        </mxCell>
        <mxCell id="f0wFIG43EovwoNzzDo---194" value="E phone" style="ellipse;whiteSpace=wrap;html=1;align=center;" parent="1" vertex="1">
          <mxGeometry x="-580" y="970" width="100" height="40" as="geometry" />
        </mxCell>
        <mxCell id="zqs60qk11nFN9drXHB8x-55" style="edgeStyle=orthogonalEdgeStyle;rounded=0;orthogonalLoop=1;jettySize=auto;html=1;exitX=0;exitY=0.5;exitDx=0;exitDy=0;entryX=1;entryY=0.75;entryDx=0;entryDy=0;" edge="1" parent="1" source="zqs60qk11nFN9drXHB8x-54" target="f0wFIG43EovwoNzzDo---9">
          <mxGeometry relative="1" as="geometry">
            <mxPoint x="250" y="1270" as="targetPoint" />
          </mxGeometry>
        </mxCell>
        <mxCell id="zqs60qk11nFN9drXHB8x-59" value="1" style="edgeLabel;html=1;align=center;verticalAlign=middle;resizable=0;points=[];" vertex="1" connectable="0" parent="zqs60qk11nFN9drXHB8x-55">
          <mxGeometry x="0.9418" relative="1" as="geometry">
            <mxPoint as="offset" />
          </mxGeometry>
        </mxCell>
        <mxCell id="zqs60qk11nFN9drXHB8x-56" style="edgeStyle=orthogonalEdgeStyle;rounded=0;orthogonalLoop=1;jettySize=auto;html=1;exitX=1;exitY=0.5;exitDx=0;exitDy=0;entryX=0;entryY=0.5;entryDx=0;entryDy=0;" edge="1" parent="1" source="zqs60qk11nFN9drXHB8x-54" target="f0wFIG43EovwoNzzDo---233">
          <mxGeometry relative="1" as="geometry" />
        </mxCell>
        <mxCell id="zqs60qk11nFN9drXHB8x-57" value="m" style="edgeLabel;html=1;align=center;verticalAlign=middle;resizable=0;points=[];" vertex="1" connectable="0" parent="zqs60qk11nFN9drXHB8x-56">
          <mxGeometry x="0.802" y="-1" relative="1" as="geometry">
            <mxPoint as="offset" />
          </mxGeometry>
        </mxCell>
        <mxCell id="zqs60qk11nFN9drXHB8x-54" value="Do" style="shape=rhombus;perimeter=rhombusPerimeter;whiteSpace=wrap;html=1;align=center;" vertex="1" parent="1">
          <mxGeometry x="565" y="1710" width="120" height="60" as="geometry" />
        </mxCell>
        <mxCell id="zqs60qk11nFN9drXHB8x-74" style="edgeStyle=orthogonalEdgeStyle;rounded=0;orthogonalLoop=1;jettySize=auto;html=1;exitX=0;exitY=0.5;exitDx=0;exitDy=0;entryX=0.75;entryY=0;entryDx=0;entryDy=0;" edge="1" parent="1" source="zqs60qk11nFN9drXHB8x-73" target="f0wFIG43EovwoNzzDo---5">
          <mxGeometry relative="1" as="geometry" />
        </mxCell>
        <mxCell id="zqs60qk11nFN9drXHB8x-73" value="Sp name" style="ellipse;whiteSpace=wrap;html=1;align=center;fontStyle=4;" vertex="1" parent="1">
          <mxGeometry x="110" y="570" width="100" height="40" as="geometry" />
        </mxCell>
        <mxCell id="zqs60qk11nFN9drXHB8x-75" value="E password" style="ellipse;whiteSpace=wrap;html=1;align=center;" vertex="1" parent="1">
          <mxGeometry x="-360" y="940" width="100" height="40" as="geometry" />
        </mxCell>
        <mxCell id="zqs60qk11nFN9drXHB8x-76" style="edgeStyle=orthogonalEdgeStyle;rounded=0;orthogonalLoop=1;jettySize=auto;html=1;exitX=1;exitY=0.5;exitDx=0;exitDy=0;entryX=0.371;entryY=0.025;entryDx=0;entryDy=0;entryPerimeter=0;" edge="1" parent="1" source="zqs60qk11nFN9drXHB8x-75" target="f0wFIG43EovwoNzzDo---9">
          <mxGeometry relative="1" as="geometry" />
        </mxCell>
        <mxCell id="zqs60qk11nFN9drXHB8x-79" style="edgeStyle=orthogonalEdgeStyle;rounded=0;orthogonalLoop=1;jettySize=auto;html=1;exitX=1;exitY=0.5;exitDx=0;exitDy=0;entryX=0;entryY=0.25;entryDx=0;entryDy=0;" edge="1" parent="1" source="zqs60qk11nFN9drXHB8x-77" target="f0wFIG43EovwoNzzDo---4">
          <mxGeometry relative="1" as="geometry" />
        </mxCell>
        <mxCell id="zqs60qk11nFN9drXHB8x-77" value="password" style="ellipse;whiteSpace=wrap;html=1;align=center;" vertex="1" parent="1">
          <mxGeometry x="690" y="1115" width="100" height="40" as="geometry" />
        </mxCell>
        <mxCell id="zqs60qk11nFN9drXHB8x-81" style="edgeStyle=orthogonalEdgeStyle;rounded=0;orthogonalLoop=1;jettySize=auto;html=1;exitX=0;exitY=0;exitDx=0;exitDy=0;entryX=0.75;entryY=1;entryDx=0;entryDy=0;" edge="1" parent="1" source="zqs60qk11nFN9drXHB8x-80" target="f0wFIG43EovwoNzzDo---1">
          <mxGeometry relative="1" as="geometry" />
        </mxCell>
        <mxCell id="zqs60qk11nFN9drXHB8x-80" value="password" style="ellipse;whiteSpace=wrap;html=1;align=center;" vertex="1" parent="1">
          <mxGeometry x="-680" y="280" width="100" height="40" as="geometry" />
        </mxCell>
        <mxCell id="zqs60qk11nFN9drXHB8x-84" value="C name" style="ellipse;whiteSpace=wrap;html=1;align=center;" vertex="1" parent="1">
          <mxGeometry x="130" y="-380" width="100" height="40" as="geometry" />
        </mxCell>
        <mxCell id="zqs60qk11nFN9drXHB8x-85" style="edgeStyle=orthogonalEdgeStyle;rounded=0;orthogonalLoop=1;jettySize=auto;html=1;exitX=1;exitY=1;exitDx=0;exitDy=0;entryX=0.144;entryY=0.147;entryDx=0;entryDy=0;entryPerimeter=0;" edge="1" parent="1" source="zqs60qk11nFN9drXHB8x-84" target="f0wFIG43EovwoNzzDo---2">
          <mxGeometry relative="1" as="geometry" />
        </mxCell>
        <mxCell id="zqs60qk11nFN9drXHB8x-86" value="city" style="ellipse;whiteSpace=wrap;html=1;align=center;" vertex="1" parent="1">
          <mxGeometry x="265" y="520" width="100" height="40" as="geometry" />
        </mxCell>
        <mxCell id="zqs60qk11nFN9drXHB8x-88" style="edgeStyle=orthogonalEdgeStyle;rounded=0;orthogonalLoop=1;jettySize=auto;html=1;exitX=0;exitY=0;exitDx=0;exitDy=0;entryX=1;entryY=1;entryDx=0;entryDy=0;" edge="1" parent="1" source="zqs60qk11nFN9drXHB8x-87" target="f0wFIG43EovwoNzzDo---66">
          <mxGeometry relative="1" as="geometry" />
        </mxCell>
        <mxCell id="zqs60qk11nFN9drXHB8x-87" value="street" style="ellipse;whiteSpace=wrap;html=1;align=center;" vertex="1" parent="1">
          <mxGeometry x="410" y="540" width="100" height="40" as="geometry" />
        </mxCell>
        <mxCell id="zqs60qk11nFN9drXHB8x-89" style="edgeStyle=orthogonalEdgeStyle;rounded=0;orthogonalLoop=1;jettySize=auto;html=1;exitX=1;exitY=0;exitDx=0;exitDy=0;entryX=0.268;entryY=0.997;entryDx=0;entryDy=0;entryPerimeter=0;" edge="1" parent="1" source="zqs60qk11nFN9drXHB8x-86" target="f0wFIG43EovwoNzzDo---66">
          <mxGeometry relative="1" as="geometry" />
        </mxCell>
      </root>
    </mxGraphModel>
  </diagram>
</mxfile>
